<svg xmlns="http://www.w3.org/2000/svg" xmlns:xlink="http://www.w3.org/1999/xlink" width="29" height="24" viewBox="0 0 89 84">
  <defs>
    <clipPath id="clip-path">
      <rect id="Rectangle_24" data-name="Rectangle 24" width="89" height="84" transform="translate(2313 258)" fill="#0a1d63"/>
    </clipPath>
  </defs>
  <g id="affordable" transform="translate(-2313 -258)" clip-path="url(#clip-path)">
    <path id="Path_466" data-name="Path 466" d="M2401,323.824h0v-.554h-.55v-.554h-.54l-19.68-9.973h0c-.55,0-8.2-2.77-15.3,0l-14.22,5.541h-.54a6.854,6.854,0,0,0-2.74,5.54,4.808,4.808,0,0,0,4.92,3.879h0s.55,0,7.11-.554a56.9,56.9,0,0,0,6.56-.554c.55,0,1.09-.554,1.09-1.663.55-.554-.54-1.662-1.09-1.662s-.55,0-6.56.554c-3.28,0-6.56.554-7.11.554a2.032,2.032,0,0,1-1.64-1.108c0-1.108,0-1.662,1.1-2.216l14.76-4.986v-.554c4.91-2.217,11.47,0,12.57,0l8.74,4.432-4.92,11.635c-2.18-1.662-5.46-1.662-7.65-1.108l-19.68,6.1c-2.73.554-4.92.554-7.1-.554l-31.16-17.176a1.221,1.221,0,0,1-.54-1.662c0-.554.54-1.108,1.64-1.108l24.05,8.31a2.809,2.809,0,0,0,2.18-1.108,2.879,2.879,0,0,0-1.09-2.216l-24.05-8.311h0a4.387,4.387,0,0,0-5.47,3.325c-1.09,2.216,0,4.432,2.19,5.54l30.61,17.176c2.73,1.662,6.56,2.216,9.29,1.108l19.68-6.1c2.18-.554,3.82-.554,5.46.554l9.84,6.649h2.19v-.554h.54l7.11-15.514h0v-.554h0Zm-3.83,1.108-5.46,12.19-6.01-3.879,4.91-11.635Zm-56.29-37.675h4.37c2.18,0,3.82,1.108,3.82,3.324a3.671,3.671,0,0,1-3.82,3.324h-7.65a1.663,1.663,0,0,0,0,3.325h3.82v3.324a2.5,2.5,0,0,0,1.64,1.662,1.753,1.753,0,0,0,1.64-1.662V297.23h1.09a7.1,7.1,0,0,0,6.56-6.649,6.692,6.692,0,0,0-6.56-6.649h-4.91a3.551,3.551,0,0,1-3.28-3.324,3.687,3.687,0,0,1,3.28-3.878h8.19a1.457,1.457,0,0,0,1.64-1.662c0-.554-.54-1.109-1.64-1.109h-4.37v-3.324a1.457,1.457,0,0,0-1.64-1.662,1.761,1.761,0,0,0-1.64,1.662v3.324h-.54a6.692,6.692,0,0,0-6.56,6.649A7.1,7.1,0,0,0,2340.88,287.257Zm2.18,24.378a25.956,25.956,0,0,0,26.24-26.04c0-14.96-11.48-26.6-26.24-26.6-14.21,0-25.69,11.635-25.69,26.6A25.838,25.838,0,0,0,2343.06,311.635Zm0-49.311a23.259,23.259,0,0,1,22.96,23.271,22.783,22.783,0,0,1-22.96,22.716,22.319,22.319,0,0,1-22.41-22.716C2320.65,272.851,2330.49,262.324,2343.06,262.324Z" fill="#0a1d63" fill-rule="evenodd"/>
  </g>
</svg>
