<svg xmlns="http://www.w3.org/2000/svg" xmlns:xlink="http://www.w3.org/1999/xlink" width="70" height="74" viewBox="0 0 70 74">
  <defs>
    <clipPath id="clip-path">
      <rect id="Rectangle_31" data-name="Rectangle 31" width="70" height="74" transform="translate(146 1091)"/>
    </clipPath>
  </defs>
  <g id="Assurance_2" data-name="Assurance 2" transform="translate(-146 -1091)" clip-path="url(#clip-path)">
    <path id="Path_484" data-name="Path 484" d="M178.19,1100a43.237,43.237,0,0,1-23.19,2.5v28.222a19.508,19.508,0,0,0,5.854,14.006c4.519,4.686,11.039,7.943,17.337,9.908,6.223-1.965,12.743-5.222,17.262-9.908a19.442,19.442,0,0,0,5.779-14.006v-6.735c-1.185,1.061-2.222,2.049-3.334,3.1a127.194,127.194,0,0,0-14.818,16.2,9.12,9.12,0,0,1-1.778,1.587,6.132,6.132,0,0,1-8.52-2.269,91.926,91.926,0,0,0-5.927-9.236,87.942,87.942,0,0,0-6.668-8.175,6.445,6.445,0,0,1,.222-9,6.194,6.194,0,0,1,8.817.231,115.342,115.342,0,0,1,7.631,9.383c.667.9,1.334,1.891,2,2.879a141.68,141.68,0,0,1,22.375-20.815V1102.5A42.775,42.775,0,0,1,178.19,1100Z" transform="translate(0.456 0.456)" fill="#747474" fill-rule="evenodd"/>
    <path id="Path_485" data-name="Path 485" d="M148.995,1095.715v35.157a24.658,24.658,0,0,0,7.563,17.81c5.691,5.758,13.777,9.73,21.564,11.747,7.712-2.017,15.874-5.989,21.489-11.747a24.587,24.587,0,0,0,7.488-17.81v-11.148c.973-.672,2.022-1.418,2.995-2.164v13.313a27.619,27.619,0,0,1-8.311,19.9c-6.14,6.294-14.9,10.476-23.286,12.651a1.3,1.3,0,0,1-.749,0c-8.461-2.175-17.147-6.357-23.286-12.651a27.763,27.763,0,0,1-8.461-19.9v-37.405h0a1.745,1.745,0,0,1,.15-.6,1.423,1.423,0,0,1,1.946-.746,37.125,37.125,0,0,0,7.264,2.238,35.609,35.609,0,0,0,7.562.6,36.705,36.705,0,0,0,7.487-1.04,39.922,39.922,0,0,0,7.039-2.7,1.454,1.454,0,0,1,1.348,0,34.316,34.316,0,0,0,22.088,3.142,33.511,33.511,0,0,0,6.963-2.164,1.283,1.283,0,0,1,.749-.221,1.5,1.5,0,0,1,1.5,1.492v9.2a5.532,5.532,0,0,0-.973.525c-.675.368-1.348.82-2.022,1.271v-8.752a36.183,36.183,0,0,1-5.616,1.566,37.867,37.867,0,0,1-8.237.672,37.021,37.021,0,0,1-8.161-1.2,32.213,32.213,0,0,1-6.964-2.543,39.282,39.282,0,0,1-15.125,3.74,38.826,38.826,0,0,1-14-2.238Z" transform="translate(0 0.003)" fill-rule="evenodd"/>
    <path id="Path_486" data-name="Path 486" d="M161.263,1122.775a3.279,3.279,0,1,1,4.741-4.529,89.62,89.62,0,0,1,7.6,9.057,71.33,71.33,0,0,1,4.063,6.042,134.976,134.976,0,0,1,13.244-13.743,133.028,133.028,0,0,1,19.266-14.647,3.231,3.231,0,0,1,4.515,1.061,3.385,3.385,0,0,1-1.054,4.6,123.149,123.149,0,0,0-18.287,13.891A127.965,127.965,0,0,0,180,1141.047s-.9.83-.978.9a3.305,3.305,0,0,1-4.515-1.208,103.009,103.009,0,0,0-6.246-9.509A92.987,92.987,0,0,0,161.263,1122.775Z" transform="translate(0.727 0.682)" fill-rule="evenodd"/>
  </g>
</svg>
