<svg xmlns="http://www.w3.org/2000/svg" xmlns:xlink="http://www.w3.org/1999/xlink" width="75" height="89" viewBox="0 0 75 89">
  <defs>
    <clipPath id="clip-path">
      <rect id="Rectangle_32" data-name="Rectangle 32" width="75" height="89" transform="translate(212 827)"/>
    </clipPath>
  </defs>
  <g id="book_2" data-name="book 2" transform="translate(-212 -827)" clip-path="url(#clip-path)">
    <path id="Path_487" data-name="Path 487" d="M281.238,858.977H269.26l-2.632,5.144,2.632,5.142h11.978ZM213,900.853V845.02a11.429,11.429,0,0,1,3.176-7.806A10.768,10.768,0,0,1,223.889,834h17.694l-2,4.408H225.341v51.425h52.267V873.672H267.99a2.114,2.114,0,0,1-1.906-1.195l-3.812-7.346a2.011,2.011,0,0,1,0-2.021l3.721-7.254a2.23,2.23,0,0,1,2-1.286h9.618V838.409h-9.165l.182-.552a7.42,7.42,0,0,0,.816-3.857h10.345a2.221,2.221,0,0,1,2.178,2.2V854.57h1.452a2.221,2.221,0,0,1,2.178,2.2v14.693a2.222,2.222,0,0,1-2.178,2.2h-1.452v18.366a2.146,2.146,0,0,1-1.18,1.928c-.272.275-.453.459-.726.734a9.4,9.4,0,0,0-2.269,6.153,9.265,9.265,0,0,0,2.36,6.061,11.043,11.043,0,0,0,1,1.1,2.211,2.211,0,0,1,.182,3.122,2.427,2.427,0,0,1-1.634.735H223.889a10.768,10.768,0,0,1-7.713-3.214A11.429,11.429,0,0,1,213,900.853Zm60.8-39.672a2.885,2.885,0,0,1,2.9,2.939,2.9,2.9,0,1,1-5.809,0A2.885,2.885,0,0,1,273.8,861.182Zm1.362,33.059H223.889a6.469,6.469,0,0,0-4.628,1.93,6.706,6.706,0,0,0,0,9.366,6.468,6.468,0,0,0,4.628,1.928h51.269a14.352,14.352,0,0,1-1.724-6.611,17.982,17.982,0,0,1,.181-2.2H223.889a2.112,2.112,0,0,0-1.543.643,1.41,1.41,0,0,1-2,0,1.48,1.48,0,0,1-.091-2.112,5.36,5.36,0,0,1,3.63-1.469h50.544A10.993,10.993,0,0,1,275.158,894.241Zm-57.8-43.16a10.312,10.312,0,0,1,5.082-2.3V838.592a6.426,6.426,0,0,0-3.176,1.745,6.629,6.629,0,0,0-1.906,4.683Zm5.082.643a6.508,6.508,0,0,0-3.63,2.021,6.35,6.35,0,0,0-1.452,2.019V879a10.309,10.309,0,0,1,5.082-2.3Zm0,28.009a6.979,6.979,0,0,0-3.63,1.928,7.575,7.575,0,0,0-1.452,2.02v8.357a10.948,10.948,0,0,1,5.082-2.113Z" transform="translate(0.32 2.239)" fill="#272727" fill-rule="evenodd"/>
    <path id="Path_488" data-name="Path 488" d="M261.263,838.647,244.5,875.061a1.805,1.805,0,0,1-.825.834l-12.367,9.636a2.188,2.188,0,0,1-3.115-.463,2.226,2.226,0,0,1-.458-1.3L227,867.927a3.333,3.333,0,0,1,.183-1.019l16.765-36.416c1.374-2.966,4.58-3.614,7.969-2.78a10.68,10.68,0,0,1,3.3,1.111,12.686,12.686,0,0,1,3.022,1.853C260.988,832.809,262.637,835.682,261.263,838.647Zm-29.407,39.659,1.007.463,7.878-6.116.092-.185-3.847-3.337-3.207-.556,15.849-34.284,7.146,3.429.458-1.02c.367-.648-.458-1.575-1.649-2.5a12.89,12.89,0,0,0-2.2-1.39,10.422,10.422,0,0,0-2.382-.834c-1.465-.277-2.748-.277-3.023.371L231.4,868.3Z" transform="translate(4.798 0.121)" fill="#3c3c3c" fill-rule="evenodd"/>
  </g>
</svg>
