<svg xmlns="http://www.w3.org/2000/svg" xmlns:xlink="http://www.w3.org/1999/xlink" width="110" height="102" viewBox="0 0 110 102">
  <defs>
    <clipPath id="clip-path">
      <rect id="Rectangle_23" data-name="Rectangle 23" width="110" height="102" transform="translate(1569 857)" fill="#0b2070"/>
    </clipPath>
  </defs>
  <g id="book" transform="translate(-1569 -857)" clip-path="url(#clip-path)">
    <path id="Path_423" data-name="Path 423" d="M1597.339,975.952h-15.378c-2.48,0-4.961-1.953-4.961-4.389V898.39c0-2.439,2.481-4.39,4.961-4.39h15.378c2.976,0,4.961,1.951,4.961,4.39v73.173C1602.3,974,1600.315,975.952,1597.339,975.952Zm-15.378-78.538c-.495,0-1.49.488-1.49.976v73.173c0,.484,1,.974,1.49.974h15.378c.99,0,1.491-.49,1.491-.974V898.39c0-.488-.5-.976-1.491-.976Z" transform="translate(-3.6 -16.649)" fill="#0b2070" fill-rule="evenodd"/>
    <path id="Path_424" data-name="Path 424" d="M1640.751,964.253h-20.3a4.406,4.406,0,0,1-4.455-4.395V872.886c0-2.443,1.98-4.886,4.455-4.886h20.3a5.289,5.289,0,0,1,4.95,4.886v86.972C1645.7,962.3,1643.226,964.253,1640.751,964.253Zm-20.3-92.344a1.058,1.058,0,0,0-.99.977v86.972a1.058,1.058,0,0,0,.99.974h20.3a1.058,1.058,0,0,0,.99-.974V872.886a1.058,1.058,0,0,0-.99-.977Z" transform="translate(-21.149 -4.95)" fill="#0b2070" fill-rule="evenodd"/>
    <path id="Path_425" data-name="Path 425" d="M1676.9,968.3H1667.8c-2.4,0-4.8-1.953-4.8-4.395V881.882a4.848,4.848,0,0,1,4.8-4.882h9.108a4.848,4.848,0,0,1,4.8,4.882v82.025C1681.7,966.35,1679.3,968.3,1676.9,968.3Zm-9.108-87.885c-.479,0-.962.488-.962,1.465v82.025a1.046,1.046,0,0,0,.962.979h9.108a1.046,1.046,0,0,0,.963-.979V881.882c0-.976-.484-1.465-.963-1.465Z" transform="translate(-42.299 -9)" fill="#0b2070" fill-rule="evenodd"/>
    <path id="Path_426" data-name="Path 426" d="M1712,959.3H1694.89c-2.448,0-4.89-1.958-4.89-4.406v-93a4.9,4.9,0,0,1,4.89-4.9H1712c2.442,0,4.4,1.958,4.4,4.9v93A4.386,4.386,0,0,1,1712,959.3Zm-17.111-98.876c-.49,0-.979.49-.979,1.469v93a1.053,1.053,0,0,0,.979.979H1712a1.053,1.053,0,0,0,.979-.979v-93c0-.979-.49-1.469-.979-1.469Z" transform="translate(-54.448)" fill="#0b2070" fill-rule="evenodd"/>
    <path id="Path_427" data-name="Path 427" d="M1742.588,964.253h-5.775c-2.888,0-4.813-1.953-4.813-4.395V872.886a4.861,4.861,0,0,1,4.813-4.886h5.775a4.861,4.861,0,0,1,4.813,4.886v9.772a2.086,2.086,0,0,1-1.925,1.954c-.962,0-1.441-.977-1.441-1.954v-9.772c0-.488-.484-.977-1.446-.977h-5.775c-.963,0-1.447.488-1.447.977v86.972c0,.484.484.974,1.447.974h5.775c.962,0,1.446-.49,1.446-.974V893.407a1.284,1.284,0,0,1,1.441-1.466c.963,0,1.925.488,1.925,1.466v66.451C1747.4,962.3,1745.475,964.253,1742.588,964.253Z" transform="translate(-73.348 -4.95)" fill="#0b2070" fill-rule="evenodd"/>
    <path id="Path_428" data-name="Path 428" d="M1600.315,932.9h-21.33c-1,0-1.985-.495-1.985-1.485V924.98a2.13,2.13,0,0,1,1.985-1.98h21.33a2.13,2.13,0,0,1,1.985,1.98v6.435C1602.3,932.405,1601.311,932.9,1600.315,932.9Zm-19.845-3.465h18.359V926.96h-18.359Z" transform="translate(-3.6 -29.699)" fill="#0b2070" fill-rule="evenodd"/>
    <path id="Path_429" data-name="Path 429" d="M1600.315,954.35h-21.33c-1,0-1.985-.492-1.985-1.476v-6.4c0-.984.99-1.476,1.985-1.476h21.33c1,0,1.985.492,1.985,1.476v6.4C1602.3,953.858,1601.311,954.35,1600.315,954.35Zm-19.845-3.445h18.359v-2.461h-18.359Z" transform="translate(-3.6 -39.599)" fill="#0b2070" fill-rule="evenodd"/>
    <path id="Path_430" data-name="Path 430" d="M1599.48,1011.3H1593.4c-.935,0-1.4-.94-1.4-1.887a1.245,1.245,0,0,1,1.4-1.413h6.078c.935,0,1.87.473,1.87,1.413A2.018,2.018,0,0,1,1599.48,1011.3Z" transform="translate(-10.35 -67.948)" fill="#0b2070" fill-rule="evenodd"/>
    <path id="Path_431" data-name="Path 431" d="M1599.48,999.85H1593.4q-1.4,0-1.4-1.65c0-1.1.468-2.2,1.4-2.2h6.078a2.212,2.212,0,0,1,1.87,2.2A1.707,1.707,0,0,1,1599.48,999.85Z" transform="translate(-10.35 -62.548)" fill="#0b2070" fill-rule="evenodd"/>
    <path id="Path_432" data-name="Path 432" d="M1641.92,1011.3h-6.435c-.99,0-1.485-.94-1.485-1.887s.495-1.413,1.485-1.413h6.435c.99,0,1.98.473,1.98,1.413A2.079,2.079,0,0,1,1641.92,1011.3Z" transform="translate(-29.249 -67.948)" fill="#0b2070" fill-rule="evenodd"/>
    <path id="Path_433" data-name="Path 433" d="M1641.92,999.85h-6.435q-1.485,0-1.485-1.65c0-1.1.495-2.2,1.485-2.2h6.435a2.258,2.258,0,0,1,1.98,2.2A1.775,1.775,0,0,1,1641.92,999.85Z" transform="translate(-29.249 -62.548)" fill="#0b2070" fill-rule="evenodd"/>
    <path id="Path_434" data-name="Path 434" d="M1639.588,939.851h-5.775a4.876,4.876,0,0,1-4.812-4.913V907.422a4.482,4.482,0,0,1,4.813-4.422h5.775c2.4,0,4.813,1.965,4.813,4.422v27.516A5.233,5.233,0,0,1,1639.588,939.851Zm-5.775-33.412c-.962,0-1.446.492-1.446.983v27.516c0,.491.484.982,1.446.982h5.775a1.048,1.048,0,0,0,.963-.982V907.422a1.049,1.049,0,0,0-.963-.983Z" transform="translate(-26.999 -20.699)" fill="#0b2070" fill-rule="evenodd"/>
    <path id="Path_435" data-name="Path 435" d="M1686.086,1006.3h-7.172c-.957,0-1.914-.473-1.914-1.413a2.042,2.042,0,0,1,1.914-1.887h7.172a2.042,2.042,0,0,1,1.914,1.887C1688,1005.827,1687.043,1006.3,1686.086,1006.3Z" transform="translate(-48.598 -65.698)" fill="#0b2070" fill-rule="evenodd"/>
    <path id="Path_436" data-name="Path 436" d="M1685.625,910.3h-8.184c-.957,0-1.441-.943-1.441-1.886a1.263,1.263,0,0,1,1.441-1.414h8.184c.963,0,1.925.471,1.925,1.414A2.049,2.049,0,0,1,1685.625,910.3Z" transform="translate(-48.148 -22.499)" fill="#0b2070" fill-rule="evenodd"/>
    <path id="Path_437" data-name="Path 437" d="M1714.932,892.35h-22.974a2.111,2.111,0,0,1-1.958-1.969v-5.906c0-.984.979-1.476,1.958-1.476h22.974a1.3,1.3,0,0,1,1.469,1.476v5.906C1716.4,891.366,1715.911,892.35,1714.932,892.35Zm-21.021-3.445h19.069v-2.461h-19.069Z" transform="translate(-54.448 -11.7)" fill="#0b2070" fill-rule="evenodd"/>
    <path id="Path_438" data-name="Path 438" d="M1714.932,944.35h-22.974c-.979,0-1.958-.492-1.958-1.476v-5.906a2.111,2.111,0,0,1,1.958-1.968h22.974c.979,0,1.469.984,1.469,1.968v5.906A1.3,1.3,0,0,1,1714.932,944.35Zm-21.021-3.445h19.069v-2.461h-19.069Z" transform="translate(-54.448 -35.099)" fill="#0b2070" fill-rule="evenodd"/>
    <path id="Path_439" data-name="Path 439" d="M1714.932,997.35h-22.974a2.06,2.06,0,0,1-1.958-1.87v-5.61a2.06,2.06,0,0,1,1.958-1.87h22.974c.979,0,1.469.935,1.469,1.87v5.61C1716.4,996.415,1715.911,997.35,1714.932,997.35Zm-21.021-3.74h19.069v-1.87h-19.069Z" transform="translate(-54.448 -58.948)" fill="#0b2070" fill-rule="evenodd"/>
    <path id="Path_440" data-name="Path 440" d="M1713.732,1022.85h-10.263c-.979,0-1.469-1.1-1.469-2.2s.49-1.65,1.469-1.65h10.263q1.469,0,1.468,1.65C1715.2,1021.75,1714.711,1022.85,1713.732,1022.85Z" transform="translate(-59.848 -72.898)" fill="#0b2070" fill-rule="evenodd"/>
    <path id="Path_441" data-name="Path 441" d="M1743.925,1019.25a2.077,2.077,0,0,1-1.925-1.942v-4.367a1.925,1.925,0,1,1,3.85,0v4.367A2.077,2.077,0,0,1,1743.925,1019.25Z" transform="translate(-77.847 -69.298)" fill="#0b2070" fill-rule="evenodd"/>
    <path id="Path_442" data-name="Path 442" d="M1743.925,991.5a2.077,2.077,0,0,1-1.925-1.941V976.941a1.925,1.925,0,1,1,3.85,0v12.618A2.077,2.077,0,0,1,1743.925,991.5Z" transform="translate(-77.847 -53.098)" fill="#0b2070" fill-rule="evenodd"/>
    <path id="Path_443" data-name="Path 443" d="M1743.925,898.65a2.126,2.126,0,0,1-1.925-2.024v-9.108c0-1.012.963-1.518,1.925-1.518s1.925.506,1.925,1.518v9.108A2.126,2.126,0,0,1,1743.925,898.65Z" transform="translate(-77.847 -13.05)" fill="#0b2070" fill-rule="evenodd"/>
    <path id="Path_444" data-name="Path 444" d="M1676.5,1039.85H1570.953a1.759,1.759,0,0,1-1.953-1.65,2.248,2.248,0,0,1,1.953-2.2H1676.5a2.248,2.248,0,0,1,1.953,2.2A1.759,1.759,0,0,1,1676.5,1039.85Z" transform="translate(0 -80.547)" fill="#0b2070" fill-rule="evenodd"/>
  </g>
</svg>
