<svg xmlns="http://www.w3.org/2000/svg" xmlns:xlink="http://www.w3.org/1999/xlink" width="87" height="88" viewBox="0 0 87 88">
  <defs>
    <clipPath id="clip-path">
      <rect id="Rectangle_25" data-name="Rectangle 25" width="87" height="88" transform="translate(1552 88)" fill="#0c1c58"/>
    </clipPath>
  </defs>
  <g id="bulb" transform="translate(-1552 -88)" clip-path="url(#clip-path)">
    <path id="Path_467" data-name="Path 467" d="M1562.68,116.275h-7.53a2.175,2.175,0,0,0,0,4.35h7.53a2.175,2.175,0,0,0,0-4.35Zm74.17,0h-7.53a2.175,2.175,0,0,0,0,4.35h7.53a2.175,2.175,0,0,0,0-4.35Zm-65.57,27.187a2.007,2.007,0,0,0-3.23,0l-5.37,5.438a3.488,3.488,0,0,0,0,3.263c.53,0,1.07.543,1.61.543s1.07-.543,1.61-.543l5.38-5.982A2.523,2.523,0,0,0,1571.28,143.462Zm54.28-54.918a3.382,3.382,0,0,0-3.22,0l-5.38,5.438a2.48,2.48,0,0,0,0,2.719c.54.544,1.08,1.088,1.61,1.088s1.08-.544,1.62-1.088l5.37-4.894A3.488,3.488,0,0,0,1625.56,88.544Zm-50.52,5.438-5.38-5.437a3.382,3.382,0,0,0-3.22,0,3.488,3.488,0,0,0,0,3.263l5.37,4.894c.54.544,1.08,1.088,1.62,1.088s1.07-.544,1.61-1.088A2.524,2.524,0,0,0,1575.04,93.981Zm54.28,54.919-5.37-5.438a2.007,2.007,0,0,0-3.23,0,2.523,2.523,0,0,0,0,2.719l5.38,5.982c.54,0,1.08.543,1.61.543s1.08-.543,1.61-.543A3.488,3.488,0,0,0,1629.32,148.9ZM1596,93.981c-14.51,0-26.34,11.963-26.34,27.188,0,7.069,2.69,14.681,6.99,21.206a26.145,26.145,0,0,1,5.38,15.225v13.05c0,2.719,1.61,4.35,3.76,4.35h19.89a3.975,3.975,0,0,0,4.29-4.35V157.6a22.974,22.974,0,0,1,5.38-15.225,39.111,39.111,0,0,0,6.45-21.206C1621.8,105.944,1610.51,93.981,1596,93.981Zm9.68,76.669h-19.89v-2.719H1596a2.175,2.175,0,0,0,0-4.35h-10.21v-2.719h19.89Zm-12.9-39.15-2.69-5.981h11.29l-2.69,5.981v.544l-1.62,25.012h-2.14l-1.62-25.012A.529.529,0,0,0,1592.78,131.5Zm18.81,8.156a35.306,35.306,0,0,0-5.91,17.4h-4.3l1.61-23.925,3.76-8.7a1.662,1.662,0,0,0,0-2.175c-.54-.544-1.07-1.087-1.61-1.087h-18.28c-.54,0-1.07.543-1.61,1.087a1.662,1.662,0,0,0,0,2.175l3.76,8.7,1.61,23.925h-4.83a30.815,30.815,0,0,0-5.91-17.4,32.759,32.759,0,0,1-5.92-18.487c0-12.507,9.68-23.382,22.04-23.382,11.82,0,22.04,10.875,22.04,23.382C1618.04,127.694,1615.35,134.219,1611.59,139.656Z" fill="#0c1c58" fill-rule="evenodd"/>
  </g>
</svg>
