<svg xmlns="http://www.w3.org/2000/svg" xmlns:xlink="http://www.w3.org/1999/xlink" width="77" height="85" viewBox="0 0 77 85">
  <defs>
    <clipPath id="clip-path">
      <rect id="Rectangle_28" data-name="Rectangle 28" width="77" height="85" transform="translate(215 938)" fill="#1f1f1f"/>
    </clipPath>
  </defs>
  <g id="coins" transform="translate(-215 -938)" clip-path="url(#clip-path)">
    <path id="Path_471" data-name="Path 471" d="M252.256,951.411c-1.036,0-1.553-.517-1.553-1.035s.518-1.034,1.553-1.034,1.554.517,1.554,1.034c0,1.035,1.036,1.552,2.072,1.552,1.553,0,2.59-.517,2.59-1.552,0-1.551-2.072-3.1-4.144-3.619v-1.035c0-1.034-1.036-1.552-2.072-1.552-1.553,0-2.071.518-2.071,1.552v1.035c-2.59.517-4.144,2.068-4.144,3.619,0,2.586,2.59,4.138,6.215,4.138,1.036,0,1.554.517,1.554,1.034a1.554,1.554,0,0,1-3.108,0c0-.517-1.036-1.034-2.59-1.034-1.036,0-2.072.517-2.072,1.034,0,2.068,1.554,3.62,4.144,4.137v1.034c0,.518.518,1.552,2.071,1.552a2.31,2.31,0,0,0,2.072-1.552v-1.034c2.072-.517,4.144-2.068,4.144-4.137S255.365,951.411,252.256,951.411Zm-16.574,47.054a1.651,1.651,0,0,1-1.553-1.548c0-.516,1.036-1.032,1.553-1.032,1.036,0,1.554.516,1.554,1.032,0,1.032,1.036,1.548,2.59,1.548,1.036,0,2.072-.516,2.072-1.548,0-1.548-1.554-3.1-3.626-3.621v-1.033c0-1.035-1.036-1.552-2.59-1.552-1.036,0-2.071.517-2.071,1.552V993.3c-2.072.516-3.626,2.073-3.626,3.621,0,2.589,2.59,4.137,5.7,4.137a1.371,1.371,0,0,1,1.554,1.548c0,.525-.518,1.041-1.554,1.041-.518,0-1.553-.516-1.553-1.041,0-1.032-1.036-1.548-2.072-1.548-1.554,0-2.072.516-2.072,1.548,0,1.557,1.554,3.1,3.626,3.621v1.032c0,1.041,1.036,1.557,2.071,1.557,1.554,0,2.59-.516,2.59-1.557v-1.032c2.072-.516,3.626-2.064,3.626-3.621C241.9,1000.022,239.308,998.465,235.682,998.465Zm55.939-13.959c0-3.62-2.072-7.239-5.7-9.825a24.791,24.791,0,0,0-13.985-4.137V952.962c0-3.62-2.072-7.24-6.216-9.825A23.112,23.112,0,0,0,252.256,939a24.8,24.8,0,0,0-13.985,4.137c-3.625,2.585-5.7,6.205-5.7,9.825v33.1a16.7,16.7,0,0,0-10.359,3.62c-4.143,2.585-6.215,6.207-6.215,10.344v7.758c0,3.621,2.072,7.233,6.215,9.822a23.089,23.089,0,0,0,13.467,4.137,24.763,24.763,0,0,0,13.984-4.137,15.759,15.759,0,0,0,4.144-4.137,12.228,12.228,0,0,0,4.662,4.137,23.087,23.087,0,0,0,13.467,4.137,24.763,24.763,0,0,0,13.985-4.137c3.625-2.589,5.7-6.2,5.7-9.822Zm-51.277-38.784a24.424,24.424,0,0,1,23.826,0c2.59,2.068,4.143,4.654,4.143,7.24,0,3.1-1.553,5.688-4.143,7.756a24.418,24.418,0,0,1-23.826,0q-4.661-3.1-4.662-7.756C235.682,950.376,237.236,947.791,240.344,945.722Zm25.379,25.338c1.036-1.034,2.072-1.551,2.59-2.068v1.551a6.58,6.58,0,0,1-3.108.517Zm-1.553-3.1a21.412,21.412,0,0,1-23.826,0,10.155,10.155,0,0,1-4.662-6.722c1.036.517,1.554,1.551,2.59,2.068a24.8,24.8,0,0,0,13.985,4.137,23.112,23.112,0,0,0,13.467-4.137,11.3,11.3,0,0,0,2.59-2.068A8.067,8.067,0,0,1,264.17,967.958ZM247.6,1015.012a21.447,21.447,0,0,1-11.913,3.1c-4.143,0-8.8-1.032-11.913-3.1-2.59-2.064-4.144-4.653-4.144-7.233a5.172,5.172,0,0,0,2.59,2.064,23.09,23.09,0,0,0,13.467,4.137,24.763,24.763,0,0,0,13.984-4.137,9.076,9.076,0,0,0,2.59-2.064C252.256,1010.359,250.7,1012.948,247.6,1015.012Zm0-7.758a21.447,21.447,0,0,1-11.913,3.1c-4.143,0-8.8-1.032-11.913-3.1-2.59-2.064-4.144-4.653-4.144-7.233,0-3.1,1.554-5.694,4.144-7.759,3.108-2.068,7.769-3.1,11.913-3.1a21.484,21.484,0,0,1,11.913,3.1q4.661,3.1,4.661,7.759C252.256,1002.6,250.7,1005.19,247.6,1007.254Zm-11.913-23.265c.518.517,1.554,1.034,2.072,1.551H236.2C236.2,985.023,235.682,984.506,235.682,983.989Zm14.5,5.689c.518.517,1.036.517,2.071.517v1.551C251.738,991.228,250.7,990.711,250.185,989.678Zm2.071-4.655h0v1.552a21.483,21.483,0,0,1-11.913-3.1,12.56,12.56,0,0,1-4.662-7.239,9.091,9.091,0,0,0,2.59,2.068,24.8,24.8,0,0,0,13.985,4.137h0v2.585Zm1.554-6.205h-1.554a21.483,21.483,0,0,1-11.913-3.1c-2.59-2.068-4.144-4.137-4.662-6.722a9.078,9.078,0,0,1,2.59,2.068c3.626,2.586,8.806,3.62,13.985,3.62a25.272,25.272,0,0,0,6.216-.517v.517A12.228,12.228,0,0,0,253.81,978.818Zm6.215-1.551a24.418,24.418,0,0,1,23.826,0c3.108,2.068,4.662,4.654,4.662,7.239q0,4.655-4.662,7.757a24.4,24.4,0,0,1-23.826,0c-2.59-2.068-4.661-4.654-4.661-7.757C255.365,981.921,257.436,979.335,260.026,977.267Zm23.826,37.745a24.406,24.406,0,0,1-23.826,0c-2.59-2.064-4.143-4.653-4.143-6.717.518.516,1.553,1.032,2.59,2.064,3.625,2.589,8.287,3.621,13.467,3.621s10.359-1.032,13.985-3.621a9.074,9.074,0,0,1,2.59-2.064A13.263,13.263,0,0,1,283.851,1015.012Zm0-7.758a21.408,21.408,0,0,1-23.826,0,8.05,8.05,0,0,1-4.143-6.717,11.274,11.274,0,0,0,2.59,2.064,23.087,23.087,0,0,0,13.467,4.137,24.763,24.763,0,0,0,13.985-4.137c1.036-.516,1.553-1.548,2.59-2.064A10.129,10.129,0,0,1,283.851,1007.254Zm0-7.233a24.406,24.406,0,0,1-23.826,0,12.567,12.567,0,0,1-4.661-7.242c1.036.516,2.071,1.548,3.108,2.073a23.146,23.146,0,0,0,13.467,4.128,24.828,24.828,0,0,0,13.985-4.128c1.036-.525,1.553-1.557,2.59-2.073C288.513,995.369,286.441,997.949,283.851,1000.022Zm-11.913-17.067c-1.036,0-1.554-.517-1.554-1.034s.518-1.035,1.554-1.035,1.553.517,1.553,1.035c0,1.034,1.036,1.551,2.072,1.551,1.554,0,2.59-.517,2.59-1.551,0-1.552-1.554-3.1-4.144-3.62v-1.034c0-1.035-1.036-1.552-2.071-1.552s-2.072.517-2.072,1.552V978.3c-2.59.517-4.144,2.068-4.144,3.62,0,2.585,3.108,4.137,6.216,4.137,1.036,0,1.553.517,1.553,1.034,0,1.035-.518,1.035-1.553,1.035s-1.554,0-1.554-1.035a2.311,2.311,0,0,0-2.072-1.552c-1.553,0-2.59,1.035-2.59,1.552,0,2.068,1.554,3.62,4.144,4.137v1.035a2.16,2.16,0,0,0,4.143,0v-1.035c2.59-.517,4.144-2.068,4.144-4.137S275.564,982.954,271.939,982.954Z" transform="translate(-0.11 -0.11)" fill="#1f1f1f" fill-rule="evenodd"/>
  </g>
</svg>
