<svg xmlns="http://www.w3.org/2000/svg" width="71" height="95" viewBox="0 0 71 95">
  <path id="Path_465" data-name="Path 465" d="M1048.31,573.219V557.781a1.76,1.76,0,1,0-3.52,0v15.438a1.76,1.76,0,1,0,3.52,0Zm-15.84,5.937a1.79,1.79,0,0,0,1.17-.594,1.813,1.813,0,0,0,0-2.374L1023.08,565.5c-1.17-1.188-2.34-1.188-2.93,0a1.815,1.815,0,0,0,0,2.375l10.56,10.687A2.138,2.138,0,0,0,1032.47,579.156Zm45.18,11.282h-14.67c-1.17,0-2.34.593-2.34,1.781s1.17,1.781,2.34,1.781h14.67c1.18,0,2.35-.594,2.35-1.781S1078.83,590.438,1077.65,590.438Zm-64.54,1.781c0,1.187,1.17,1.781,2.34,1.781h14.67a1.781,1.781,0,0,0,0-3.562h-14.67C1014.28,590.438,1013.11,591.031,1013.11,592.219Zm47.53-12.469,10.56-10.688a1.813,1.813,0,0,0,0-2.374c-.59-1.188-1.76-1.188-2.94,0l-10.56,10.687a1.838,1.838,0,0,0,0,2.375,2.148,2.148,0,0,0,1.76.594A1.822,1.822,0,0,0,1060.64,579.75ZM1009,613v33.25a3.808,3.808,0,0,0,3.52,3.562h11.15c1.76,0,2.35-.593,3.52-1.781a9.378,9.378,0,0,0,6.45,2.969h29.93c7.04,0,11.15-3.562,11.74-9.5l4.1-26.125v-.594c0-5.343-4.1-9.5-9.97-9.5h-14.67V594a13.368,13.368,0,0,0-4.11-10.094c-4.11-2.968-9.97-1.187-10.56-1.187-.59.593-1.17,1.187-1.17,1.781v12.469c0,9.5-11.15,13.062-11.74,13.062a.579.579,0,0,0-.59.594,3.213,3.213,0,0,0-2.93-1.781h-11.15C1010.76,608.844,1009,610.625,1009,613Zm18.78.594h.58c.59,0,14.09-4.156,14.09-16.625V586.281a6.859,6.859,0,0,1,5.86.594c1.76,1.781,2.35,4.156,2.35,7.125v13.062a1.881,1.881,0,0,0,1.76,1.782h17.02c3.52,0,5.87,2.968,6.45,5.937l-4.1,26.125h0c-.59,4.156-3.53,5.938-8.22,5.938h-29.93a5.571,5.571,0,0,1-5.86-5.938ZM1012.52,613h11.15v33.25h-11.15Z" transform="translate(-1009 -556)" fill="#081b61" fill-rule="evenodd"/>
</svg>
