<svg xmlns="http://www.w3.org/2000/svg" width="338.596" height="320.812" viewBox="0 0 338.596 320.812">
  <g id="Assurance_2" data-name="Assurance 2" transform="translate(-14.338 22.686)">
    <path id="Path_496" data-name="Path 496" d="M915.432,677.132c3.849,6.8.585,29.784.585,29.784s-21.374-9.048-25.223-15.849a14.153,14.153,0,0,1,24.638-13.935Z" transform="translate(-600.635 -410.428)" fill="#40c676"/>
    <path id="Path_497" data-name="Path 497" d="M918.3,701.048l-.36.076c-3.468-16.476-15.578-27.649-15.7-27.76l.248-.272C902.608,673.2,914.8,684.452,918.3,701.048Z" transform="translate(-599.827 -454.243)" fill="#fff"/>
    <path id="Path_498" data-name="Path 498" d="M971.826,672.653c-5.223,9.475-34.671,22.311-34.671,22.311s-4.855-31.755.365-41.227a19.588,19.588,0,0,1,34.306,18.916Z" transform="translate(-622.053 -398.201)" fill="#08903e"/>
    <path id="Path_499" data-name="Path 499" d="M938.941,687.277l-.351-.369c16.9-16.047,21.271-38.428,21.313-38.652l.5.094C960.362,648.576,955.961,671.114,938.941,687.277Z" transform="translate(-620.734 -439.959)" fill="#fff"/>
    <path id="Path_500" data-name="Path 500" d="M244.513,281.936a19.5,19.5,0,0,1-5.232-.736l-.337-.1-.312-.17a88.228,88.228,0,0,1-28.324-24.185,94,94,0,0,1-14.3-27.623,114.832,114.832,0,0,1-5.527-37.452c0-.268.009-.474.009-.616,0-6.195,3.161-11.63,8.054-13.848,3.744-1.7,37.741-16.886,40.2-17.983,4.626-2.521,9.561-.417,10.351-.049,1.771.788,33.2,14.77,39.991,18.288a15.828,15.828,0,0,1,8.867,13.415,117.741,117.741,0,0,1-7.021,41.209,97.1,97.1,0,0,1-15.765,27.635c-12.869,15.753-25.742,21.337-25.866,21.386a13.037,13.037,0,0,1-4.784.831Zm-3.027-8.156c1.116.272,3.685.68,5.36.016,2.127-.844,12.9-6.921,22.97-19.245,13.911-17.028,20.969-38.433,20.979-63.621-.025-.51-.358-4.15-4.789-6.445-6.66-3.449-39.327-17.979-39.656-18.125l-.09-.042c-.685-.312-2.863-.969-4.365-.113l-.3.152c-.364.163-36.452,16.285-40.3,18.03-2.692,1.22-3.652,4.243-3.652,6.665,0,.177,0,.434-.01.767-.307,17.235,3.359,59.644,43.855,81.96Z" transform="translate(-176.121 -180.685)" fill="#3f3d56"/>
    <path id="Path_501" data-name="Path 501" d="M248.7,171.613s-35.869,16.145-39.713,17.9-5.765,5.967-5.765,10.179-2.882,59.171,45.477,85.743c0,0,4.389,1.331,7.719,0s45.6-23.794,45.6-85.919a11.832,11.832,0,0,0-6.725-9.828c-6.725-3.51-39.242-18.076-39.242-18.076S252.058,169.682,248.7,171.613Z" transform="translate(-184.523 -188.105)" fill="#08903e"/>
    <path id="Path_502" data-name="Path 502" d="M296.041,215.286v96.606s-44.486-21.414-44.092-77.709Z" transform="translate(-222.213 -218.502)" opacity="0.1"/>
    <path id="Path_503" data-name="Path 503" d="M165.406,184.019,151.235,165.8l8.241-6.409,6.71,8.627,22.667-23.928,7.58,7.182Z" transform="translate(-99.205 -124.807)" fill="#fff"/>
    <path id="Path_504" data-name="Path 504" d="M831.224,741.072H627.076a.536.536,0,1,1,0-1.072H831.224a.536.536,0,1,1,0,1.072Z" transform="translate(-478.826 -442.946)" fill="#cacaca"/>
    <path id="Path_505" data-name="Path 505" d="M547.2,540.547h8.286l3.943-31.963H547.2Z" transform="translate(-339.945 -250.867)" fill="#ffb8b8"/>
    <path id="Path_506" data-name="Path 506" d="M733.725,721.187h16.321a10.4,10.4,0,0,1,10.4,10.4v.339h-26.72Z" transform="translate(-528.579 -434.213)" fill="#2f2e41"/>
    <path id="Path_507" data-name="Path 507" d="M599.2,540.547h8.286l3.943-31.963H599.2Z" transform="translate(-364.082 -250.867)" fill="#ffb8b8"/>
    <path id="Path_508" data-name="Path 508" d="M785.725,721.187h16.321a10.4,10.4,0,0,1,10.4,10.4v.339h-26.72Z" transform="translate(-552.716 -434.213)" fill="#2f2e41"/>
    <path id="Path_509" data-name="Path 509" d="M546.589,351.629l1.988,101.4-16.081-1-11.156-64.589-3.523-44.039Z" transform="translate(-326.304 -174.196)" fill="#2f2e41"/>
    <path id="Path_510" data-name="Path 510" d="M764.651,464.116l2.254,120.04-18.754-.536L744.1,512.264l-7.046-25.836-28.772-13.505,4.7-32.295,42.277-.587Z" transform="translate(-516.769 -303.712)" fill="#2f2e41"/>
    <ellipse id="Ellipse_6" data-name="Ellipse 6" cx="14.381" cy="14.381" rx="14.381" ry="14.381" transform="translate(201.169 24.19)" fill="#ffb8b8"/>
    <path id="Path_511" data-name="Path 511" d="M560.9,137.738l2.2,3.337,5.872,16.441-4.7,64-27.6.588-3.523-73.4,7.38-9.225Z" transform="translate(-333.426 -78.729)" fill="#ccc"/>
    <path id="Path_512" data-name="Path 512" d="M690.6,318.99l-4.7-.587s-1.174.587-1.762,4.7-7.633,40.515-7.633,40.515l9.395,44.625,10.569-14.092-6.459-24.661,6.459-24.661Z" transform="translate(-502.018 -247.25)" fill="#2f2e41"/>
    <path id="Path_513" data-name="Path 513" d="M618.01,160.4h3.523l8.808,47.561-8.221,36.992-8.221-13.5,2.348-14.679-1.174-12.918-4.11-7.634Z" transform="translate(-369.541 -89.25)" fill="#2f2e41"/>
    <path id="Path_514" data-name="Path 514" d="M746.915,238.287l-2.615-.654s-1.961-11.112-6.537-9.8-16.341,2.615-16.341-2.615,11.112-9.8,17.649-9.151,14.885,2.822,17,12.42c3.383,15.385-6.98,19.271-6.98,19.271l.172-.56a8.725,8.725,0,0,0-2.344-8.906Z" transform="translate(-522.868 -199.717)" fill="#2f2e41"/>
    <path id="Path_515" data-name="Path 515" d="M695.132,307.467l18.79-7.633,4.4-3.229,13.211,58.424,6.165-60.186,24.368,12.624-8.22,39.928-1.174,15.267,3.523,12.331s12.331,8.808,8.22,18.2-8.808,9.982-8.808,9.982-19.964-18.79-21.138-23.487-2.936-12.918-2.936-12.918-9.982,37.579-21.725,36.992-11.743-12.918-11.743-12.918L701,377.927l4.7-13.505-2.349-22.313Z" transform="translate(-510.665 -236.313)" fill="#2f2e41"/>
  </g>
</svg>
