<svg xmlns="http://www.w3.org/2000/svg" xmlns:xlink="http://www.w3.org/1999/xlink" width="373" height="345" viewBox="0 0 373 345">
  <defs>
    <clipPath id="clip-path">
      <rect id="Rectangle_12" data-name="Rectangle 12" width="373" height="345" transform="translate(133 113)"/>
    </clipPath>
  </defs>
  <g id="Picture1" transform="translate(-133 -113)" clip-path="url(#clip-path)">
    <path id="Path_3" data-name="Path 3" d="M1082.075,183.009c-19.457-20.021-26.807-26.283-52.325-38.889,5.314-10.021,10.064-20.312,15.317-30.374,28.481,14.154,40.034,22.337,61.465,45.878C1098.347,167.391,1090.08,175.055,1082.075,183.009Z" transform="translate(-642.443 -0.534)" fill="#285193" fill-rule="evenodd"/>
    <path id="Path_4" data-name="Path 4" d="M1095.679,191.061c-15.977-18.544-24.8-24.474-46.939-34.936,4.086-7.741,7.83-15.636,11.874-23.387,24.635,11.569,36.228,19.176,53.865,40.152C1108.183,178.9,1101.745,184.79,1095.679,191.061Z" transform="translate(-656.048 -14.14)" fill="#b1fafc" fill-rule="evenodd"/>
    <path id="Path_5" data-name="Path 5" d="M1213.732,266.051a3.185,3.185,0,0,1-5.025-.166,4.682,4.682,0,0,1,.1-5.875,3.2,3.2,0,0,1,5.13.062A4.628,4.628,0,0,1,1213.732,266.051Z" transform="translate(-769.943 -104.417)" fill="#285193" fill-rule="evenodd"/>
    <path id="Path_6" data-name="Path 6" d="M1102.871,184.245a4.562,4.562,0,0,1-5.771,1.655,3.485,3.485,0,0,1-1.883-5.017,4.465,4.465,0,0,1,5.751-1.758C1103.078,180.04,1104.065,182.25,1102.871,184.245Z" transform="translate(-689.012 -47.082)" fill="#285193" fill-rule="evenodd"/>
    <path id="Path_7" data-name="Path 7" d="M1275.071,267.709a3,3,0,0,1-4.537-.2,3.587,3.587,0,0,1,.213-4.883,3.016,3.016,0,0,1,4.537.257A3.448,3.448,0,0,1,1275.071,267.709Z" transform="translate(-814.329 -106.544)" fill="#285193" fill-rule="evenodd"/>
    <path id="Path_8" data-name="Path 8" d="M1209.053,332.461a2.994,2.994,0,0,1-4.444-.031,3.47,3.47,0,0,1,.221-4.719,2.751,2.751,0,0,1,4.234.147A3.344,3.344,0,0,1,1209.053,332.461Z" transform="translate(-767.125 -153.159)" fill="#285193" fill-rule="evenodd"/>
    <path id="Path_9" data-name="Path 9" d="M1085.235,125.5a3.5,3.5,0,0,1-4.668,1.542,3.187,3.187,0,0,1-1.449-4.462,3.349,3.349,0,0,1,4.546-1.491A3.18,3.18,0,0,1,1085.235,125.5Z" transform="translate(-677.524 -5.53)" fill="#285193" fill-rule="evenodd"/>
    <path id="Path_10" data-name="Path 10" d="M1043.086,208.4a3.385,3.385,0,0,1-4.5,1.485,3.065,3.065,0,0,1-1.4-4.318,3.339,3.339,0,0,1,4.455-1.443A3.01,3.01,0,0,1,1043.086,208.4Z" transform="translate(-647.484 -65.04)" fill="#285193" fill-rule="evenodd"/>
    <path id="Path_11" data-name="Path 11" d="M1167.434,230.813c-.561.819-1.134,1.638-1.684,2.467.729.393,1.455.553,2-.16a1.151,1.151,0,0,0,.23-.989A4.049,4.049,0,0,0,1167.434,230.813Z" transform="translate(-739.875 -84.403)" fill="#285193" fill-rule="evenodd"/>
    <path id="Path_12" data-name="Path 12" d="M1171.958,212.276a1.191,1.191,0,0,0-.187.936,4.15,4.15,0,0,0,.584,1.276c.5-.787,1-1.574,1.486-2.361a2.19,2.19,0,0,0-1.134-.308A.9.9,0,0,0,1171.958,212.276Z" transform="translate(-744.172 -70.791)" fill="#285193" fill-rule="evenodd"/>
    <path id="Path_13" data-name="Path 13" d="M1155.175,192.151c-4.722-3.431-10.354.01-13.079,4.2s-3.709,10.346.658,13.518,9.54.125,12.537-3.785S1159.9,195.582,1155.175,192.151Zm-6.193,14.609a5.039,5.039,0,0,1-2.706-.79c-.42.551-.828,1.123-1.234,1.674-.3-.239-.618-.468-.919-.707.4-.541.8-1.082,1.191-1.633a10.523,10.523,0,0,1-2.654-2.662c.374-.541.771-1.081,1.137-1.632.377.53.723,1.081,1.14,1.57a8.5,8.5,0,0,0,1.378,1.289c.681-.957,1.358-1.9,2.028-2.859-.094-.177-.335-.541-.408-.686a8.68,8.68,0,0,1-1.1-2.381,2.744,2.744,0,0,1,2.456-3.182,5.141,5.141,0,0,1,2.759.8c.3-.406.584-.821.868-1.248.343.25.678.5,1.024.749-.284.406-.576.811-.856,1.217a10.1,10.1,0,0,1,2.382,2.87q-.74.453-1.495.9a8.292,8.292,0,0,0-1.892-2.36c-.627.894-1.211,1.82-1.849,2.714.082.156.292.51.366.624a6.708,6.708,0,0,1,.993,2.631,2.612,2.612,0,0,1-.607,1.934A2.657,2.657,0,0,1,1148.981,206.76Z" transform="translate(-721.258 -55.701)" fill="#285193" fill-rule="evenodd"/>
    <path id="Path_14" data-name="Path 14" d="M347.42,280.789c-17.052,14.578-19.25,20.131-29.874,39.243-7.625-4.108-15.271-8.121-22.791-12.405,12.062-22.2,16.875-28.626,35.239-45.877Q338.79,271.186,347.42,280.789Z" transform="translate(-115.883 -106.566)" fill="#285193" fill-rule="evenodd"/>
    <path id="Path_15" data-name="Path 15" d="M353.408,291.347c-16.09,12.867-17.27,18.254-26.876,35.389-5.983-3.118-11.945-6.257-17.771-9.676,9.867-19.3,13.7-26.51,31.063-40.32C344.365,281.6,348.866,286.488,353.408,291.347Z" transform="translate(-125.917 -117.305)" fill="#b1fafc" fill-rule="evenodd"/>
    <path id="Path_16" data-name="Path 16" d="M411.432,313.744a2.416,2.416,0,0,1-.221,3.847,3.574,3.574,0,0,1-4.519-.25,2.406,2.406,0,0,1,.158-3.879A3.528,3.528,0,0,1,411.432,313.744Z" transform="translate(-195.427 -143.103)" fill="#285193" fill-rule="evenodd"/>
    <path id="Path_17" data-name="Path 17" d="M348.834,395.146a4.11,4.11,0,0,1,1.57,4.729,2.465,2.465,0,0,1-3.75,1.552,3.964,3.964,0,0,1-1.622-4.77C345.653,394.95,347.254,394.169,348.834,395.146Z" transform="translate(-151.726 -201.827)" fill="#285193" fill-rule="evenodd"/>
    <path id="Path_18" data-name="Path 18" d="M413.26,268.569a2.462,2.462,0,0,1-.114,3.567,2.756,2.756,0,0,1-3.754-.218,2.338,2.338,0,0,1,.3-3.473A2.48,2.48,0,0,1,413.26,268.569Z" transform="translate(-197.551 -110.865)" fill="#285193" fill-rule="evenodd"/>
    <path id="Path_19" data-name="Path 19" d="M461.051,320.554a2.231,2.231,0,0,1-.166,3.327,2.562,2.562,0,0,1-3.483-.26,2.141,2.141,0,0,1,.187-3.234A2.451,2.451,0,0,1,461.051,320.554Z" transform="translate(-231.939 -148.118)" fill="#285193" fill-rule="evenodd"/>
    <path id="Path_20" data-name="Path 20" d="M304.432,410.1a2.691,2.691,0,0,1,1.04,3.587,2.449,2.449,0,0,1-3.431.894,2.565,2.565,0,0,1-.978-3.473A2.352,2.352,0,0,1,304.432,410.1Z" transform="translate(-120.178 -212.596)" fill="#285193" fill-rule="evenodd"/>
    <path id="Path_21" data-name="Path 21" d="M366.284,445.043a2.333,2.333,0,0,1,.946,3.255,2.406,2.406,0,0,1-3.265.988,2.269,2.269,0,0,1-.9-3.192A2.328,2.328,0,0,1,366.284,445.043Z" transform="translate(-164.596 -237.67)" fill="#285193" fill-rule="evenodd"/>
    <path id="Path_22" data-name="Path 22" d="M382.75,356.074c.6.5,1.217,1.009,1.809,1.487a1.214,1.214,0,0,0-.031-1.539c-.354-.312-.4-.25-.749-.27A2.828,2.828,0,0,0,382.75,356.074Z" transform="translate(-178.924 -173.909)" fill="#285193" fill-rule="evenodd"/>
    <path id="Path_23" data-name="Path 23" d="M368.052,352.185a.755.755,0,0,0,.655.135,5.33,5.33,0,0,0,.957-.4c-.53-.416-1.081-.8-1.632-1.175a1.879,1.879,0,0,0-.281.863A.664.664,0,0,0,368.052,352.185Z" transform="translate(-168.178 -170.327)" fill="#285193" fill-rule="evenodd"/>
    <path id="Path_24" data-name="Path 24" d="M354,334.777c-2.855,3.359-.261,8.038,2.844,10.242s7.665,3.119,10.175-.135.47-7.248-2.426-9.7S356.852,331.418,354,334.777Zm10.823,5.168a3.889,3.889,0,0,1-.669,2.069c.408.343.826.665,1.234,1.008-.188.229-.387.458-.575.686-.408-.322-.805-.655-1.213-.977a11.263,11.263,0,0,1-2.06,1.986c-.429-.322-.847-.666-1.255-1a7.526,7.526,0,0,0,1.182-.873c.366-.322.711-.645,1.046-1-.732-.582-1.453-1.185-2.185-1.768-.136.062-.418.218-.533.27a7.3,7.3,0,0,1-1.809.8,1.826,1.826,0,0,1-1.5-.385,1.786,1.786,0,0,1-.784-1.539,4.369,4.369,0,0,1,.7-2.048c-.3-.239-.617-.458-.92-.686.2-.25.387-.51.607-.749.3.218.6.437.9.665a6.849,6.849,0,0,1,2.28-1.674c.209.385.408.759.617,1.144A7.106,7.106,0,0,0,358,337.116c.68.468,1.318,1.008,1.977,1.508.125-.052.408-.2.5-.239a5.206,5.206,0,0,1,2.081-.593,2.1,2.1,0,0,1,1.464.551A2.036,2.036,0,0,1,364.821,339.944Z" transform="translate(-157.443 -157.432)" fill="#285193" fill-rule="evenodd"/>
    <path id="Path_25" data-name="Path 25" d="M1312.711,489.734a183.1,183.1,0,0,1-38.123,38.1c-5.037-6.354-9.719-12.979-14.849-19.26,13.76-10.4,23.614-19.906,33.965-33.822C1299.944,479.89,1306.461,484.64,1312.711,489.734Z" transform="translate(-807.211 -259.166)" fill="#285193" fill-rule="evenodd"/>
    <path id="Path_26" data-name="Path 26" d="M1318.772,500.252c-9.614,13.988-19.74,23.752-33.517,33.517-3.834-4.96-7.546-10.013-11.525-14.87,12.495-9.028,21.468-17.453,30.406-30.155C1308.954,492.667,1313.957,496.34,1318.772,500.252Z" transform="translate(-817.234 -269.188)" fill="#b1fafc" fill-rule="evenodd"/>
    <path id="Path_27" data-name="Path 27" d="M1384.109,524.394a3.273,3.273,0,0,1,.508,4.329,2.488,2.488,0,0,1-3.826.632,3.279,3.279,0,0,1-.448-4.3A2.46,2.46,0,0,1,1384.109,524.394Z" transform="translate(-893.185 -294.292)" fill="#285193" fill-rule="evenodd"/>
    <path id="Path_28" data-name="Path 28" d="M1313.235,595.856a2.341,2.341,0,0,1-.57,3.691,3.318,3.318,0,0,1-4.265-.686,2.321,2.321,0,0,1,.6-3.619A3.349,3.349,0,0,1,1313.235,595.856Z" transform="translate(-841.632 -345.132)" fill="#285193" fill-rule="evenodd"/>
    <path id="Path_29" data-name="Path 29" d="M1377.246,480.273a2.438,2.438,0,0,1,.377,3.3,2.01,2.01,0,0,1-3.043.457,2.487,2.487,0,0,1-.42-3.338A2.042,2.042,0,0,1,1377.246,480.273Z" transform="translate(-888.855 -262.744)" fill="#285193" fill-rule="evenodd"/>
    <path id="Path_30" data-name="Path 30" d="M1428.575,521.325a2.492,2.492,0,0,1,.457,3.463,2.264,2.264,0,0,1-3.318.489,2.65,2.65,0,0,1-.488-3.567A2.243,2.243,0,0,1,1428.575,521.325Z" transform="translate(-925.426 -292.117)" fill="#285193" fill-rule="evenodd"/>
    <path id="Path_31" data-name="Path 31" d="M1268.941,588.562a1.968,1.968,0,0,1-.437,2.991,2.337,2.337,0,0,1-3.244-.357,2.027,2.027,0,0,1,.4-3.042A2.446,2.446,0,0,1,1268.941,588.562Z" transform="translate(-810.8 -340.081)" fill="#285193" fill-rule="evenodd"/>
    <path id="Path_32" data-name="Path 32" d="M1310.184,639.749a2.237,2.237,0,0,1-.479,3.307,2.456,2.456,0,0,1-3.42-.478,2.305,2.305,0,0,1,.425-3.348A2.509,2.509,0,0,1,1310.184,639.749Z" transform="translate(-840.175 -376.654)" fill="#285193" fill-rule="evenodd"/>
    <path id="Path_33" data-name="Path 33" d="M1357.75,572.085c.468.457.956.915,1.424,1.362a1.185,1.185,0,0,0,.167-1.456c-.3-.312-.332-.229-.644-.239C1358.374,571.722,1358.051,571.971,1357.75,572.085Z" transform="translate(-877.427 -328.654)" fill="#285193" fill-rule="evenodd"/>
    <path id="Path_34" data-name="Path 34" d="M1344.989,567.154a.876.876,0,0,0,.624.3,2.649,2.649,0,0,0,.956-.187c-.5-.509-.987-1.019-1.486-1.518a1.5,1.5,0,0,0-.334.769A.8.8,0,0,0,1344.989,567.154Z" transform="translate(-868.112 -324.356)" fill="#285193" fill-rule="evenodd"/>
    <path id="Path_35" data-name="Path 35" d="M1332.232,548.2c-2.8,2.665-1.251,6.829,1.146,9.38s6.8,4.277,9.69,1.395,1.211-7.232-1.4-9.669C1339.049,546.85,1335.022,545.538,1332.232,548.2Zm9.475,6.023a3.967,3.967,0,0,1-.859,1.973c.321.32.652.64.973.961-.218.217-.425.423-.641.64-.312-.31-.63-.62-.942-.93a6.756,6.756,0,0,1-2.354,1.508c-.312-.32-.621-.651-.922-.971a7.7,7.7,0,0,0,1.324-.527,4.7,4.7,0,0,0,1.106-.837c-.559-.527-1.106-1.064-1.676-1.58a4.338,4.338,0,0,1-.525.227,3.889,3.889,0,0,1-1.841.32,2.151,2.151,0,0,1-1.373-.713,1.85,1.85,0,0,1-.527-1.529,3.379,3.379,0,0,1,.825-1.766c-.267-.279-.536-.558-.794-.837.207-.186.414-.382.618-.568.269.269.527.537.785.806a10.279,10.279,0,0,1,2.067-1.529c.184.413.36.826.547,1.24a8.3,8.3,0,0,0-1.7,1.219c.567.578,1.126,1.167,1.724,1.715.1-.062.372-.207.454-.248a4.471,4.471,0,0,1,1.852-.641,1.551,1.551,0,0,1,1.271.527A1.771,1.771,0,0,1,1341.706,554.226Z" transform="translate(-858.071 -310.731)" fill="#285193" fill-rule="evenodd"/>
    <path id="Path_36" data-name="Path 36" d="M1359.776,451.339a15.029,15.029,0,1,1-5.436-20.547A15.021,15.021,0,0,1,1359.776,451.339Z" transform="translate(-858.799 -226.208)" fill="#ed8945" fill-rule="evenodd"/>
    <path id="Path_37" data-name="Path 37" d="M1353.166,433.663a13.659,13.659,0,1,1-15.594,11.214A13.648,13.648,0,0,1,1353.166,433.663Z" transform="translate(-862.836 -229.591)" fill="#f29251" fill-rule="evenodd"/>
    <path id="Path_38" data-name="Path 38" d="M1368.467,461.6a10.1,10.1,0,0,1-13.7,3.581,9.818,9.818,0,0,1-3.633-13.518,10.105,10.105,0,0,1,13.706-3.581A9.82,9.82,0,0,1,1368.467,461.6Z" transform="translate(-871.713 -239.094)" fill="#f29251" fill-rule="evenodd"/>
    <path id="Path_39" data-name="Path 39" d="M1367.92,469.79l.961-1.612a5.468,5.468,0,0,1-2.082-2.128l1.024-.847a4.953,4.953,0,0,0,1.946,2.025,2,2,0,0,0,2.875-.465c.516-.878.21-1.787-.72-2.954-1.287-1.591-1.88-2.9-1.055-4.3a3.131,3.131,0,0,1,3.993-1.167l.964-1.612,1.012.579-.919,1.55a5.08,5.08,0,0,1,1.8,1.766l-1.035.826a4.6,4.6,0,0,0-1.736-1.715,1.742,1.742,0,0,0-2.547.392c-.5.826-.136,1.591.942,2.975,1.287,1.632,1.636,2.944.791,4.359a3.33,3.33,0,0,1-4.194,1.25l-.984,1.663Z" transform="translate(-883.91 -246.254)" fill="#fff" fill-rule="evenodd"/>
    <path id="Path_40" data-name="Path 40" d="M303.281,233.29a13.354,13.354,0,1,1-10.991-15.358A13.351,13.351,0,0,1,303.281,233.29Z" transform="translate(-102.985 -75.044)" fill="#db7b3a" fill-rule="evenodd"/>
    <path id="Path_41" data-name="Path 41" d="M305.789,235.827a12.1,12.1,0,1,1-9.962-13.913A12.1,12.1,0,0,1,305.789,235.827Z" transform="translate(-106.567 -77.91)" fill="#f29251" fill-rule="evenodd"/>
    <path id="Path_42" data-name="Path 42" d="M310.285,244.017a8.827,8.827,0,1,1-7.268-10.149A8.833,8.833,0,0,1,310.285,244.017Z" transform="translate(-114.447 -86.507)" fill="#f29251" fill-rule="evenodd"/>
    <path id="Path_43" data-name="Path 43" d="M313.972,253.007l.277-1.632a4.983,4.983,0,0,1-2.435-1.126l.585-1.023a4.592,4.592,0,0,0,2.286,1.085,1.781,1.781,0,0,0,2.255-1.271c.149-.888-.4-1.549-1.552-2.231-1.6-.919-2.51-1.839-2.276-3.244a2.753,2.753,0,0,1,2.967-2.2l.277-1.632,1.031.165-.266,1.57a4.5,4.5,0,0,1,2.074.919l-.6,1a4.192,4.192,0,0,0-2.01-.888c-1.287-.207-1.893.465-2.01,1.105-.149.847.4,1.363,1.755,2.18,1.606.961,2.329,1.942,2.084,3.378a2.93,2.93,0,0,1-3.105,2.335l-.287,1.684Z" transform="translate(-128.104 -90.792)" fill="#fff" fill-rule="evenodd"/>
    <path id="Path_44" data-name="Path 44" d="M1228.358,382.055a10.3,10.3,0,1,1-10.3-10.3A10.3,10.3,0,0,1,1228.358,382.055Z" transform="translate(-769.965 -185.372)" fill="#b1fafc" fill-rule="evenodd"/>
    <path id="Path_45" data-name="Path 45" d="M1229.525,384.972a9.383,9.383,0,1,1-9.381-9.248A9.315,9.315,0,0,1,1229.525,384.972Z" transform="translate(-772.121 -188.219)" fill="#285193" fill-rule="evenodd"/>
    <path id="Path_46" data-name="Path 46" d="M1231.282,396.282a6.764,6.764,0,1,1,0-9.566A6.757,6.757,0,0,1,1231.282,396.282Z" transform="translate(-778.549 -194.673)" fill="#b1fafc" fill-rule="evenodd"/>
    <path id="Path_47" data-name="Path 47" d="M1230.824,401.1l.913-.915a3.808,3.808,0,0,1-.987-1.778l.823-.385a3.31,3.31,0,0,0,.913,1.685,1.332,1.332,0,0,0,1.957.187c.5-.5.445-1.154.051-2.09-.562-1.279-.706-2.267.074-3.047a2.1,2.1,0,0,1,2.816-.094l.916-.915.562.562-.873.873a3.405,3.405,0,0,1,.854,1.487l-.823.374a3.068,3.068,0,0,0-.831-1.445,1.164,1.164,0,0,0-1.739-.177c-.468.468-.374,1.04.094,2.142.553,1.31.553,2.246-.25,3.047a2.2,2.2,0,0,1-2.952.1l-.936.936Z" transform="translate(-786.442 -201.133)" fill="#285193" fill-rule="evenodd"/>
    <path id="Path_48" data-name="Path 48" d="M1333.463,764.107a10.357,10.357,0,1,1-10.357-10.357A10.357,10.357,0,0,1,1333.463,764.107Z" transform="translate(-845.188 -459.042)" fill="#b1fafc" fill-rule="evenodd"/>
    <path id="Path_49" data-name="Path 49" d="M1332.585,773.584a9.292,9.292,0,1,1,0-13.141A9.3,9.3,0,0,1,1332.585,773.584Z" transform="translate(-848.036 -461.888)" fill="#285193" fill-rule="evenodd"/>
    <path id="Path_50" data-name="Path 50" d="M1339.325,772.717a6.8,6.8,0,1,1-6.8-6.931A6.865,6.865,0,0,1,1339.325,772.717Z" transform="translate(-854.487 -467.664)" fill="#b1fafc" fill-rule="evenodd"/>
    <path id="Path_51" data-name="Path 51" d="M1335.824,783.133l.913-.915a3.692,3.692,0,0,1-.987-1.789l.823-.385a3.378,3.378,0,0,0,.913,1.7,1.342,1.342,0,0,0,1.965.187c.5-.5.459-1.165.054-2.1-.562-1.289-.717-2.277.071-3.067a2.11,2.11,0,0,1,2.83-.094l.913-.915.562.561-.882.884a3.432,3.432,0,0,1,.862,1.5l-.823.374a3.022,3.022,0,0,0-.831-1.445,1.16,1.16,0,0,0-1.736-.177c-.468.468-.374,1.04.094,2.152.55,1.31.55,2.256-.25,3.067a2.241,2.241,0,0,1-2.975.115l-.947.946Z" transform="translate(-861.666 -474.803)" fill="#285193" fill-rule="evenodd"/>
    <path id="Path_52" data-name="Path 52" d="M481.742,424.753H546.66v81.241H481.742Z" transform="translate(-249.843 -223.344)" fill="#43d1cd" fill-rule="evenodd"/>
    <path id="Path_53" data-name="Path 53" d="M467.746,446.744H540.44V527.7H467.746Z" transform="translate(-239.816 -239.099)" fill="#b1fafc" fill-rule="evenodd"/>
    <path id="Path_54" data-name="Path 54" d="M560.057,364.26a1.807,1.807,0,0,1-1.806-1.805V342.3a18.948,18.948,0,0,0-37.9,0v20.152a1.806,1.806,0,0,1-3.611,0V342.3a22.559,22.559,0,0,1,45.118,0v20.152A1.807,1.807,0,0,1,560.057,364.26Z" transform="translate(-274.919 -148.114)" fill="#204477" fill-rule="evenodd"/>
    <path id="Path_55" data-name="Path 55" d="M512.75,479.589a2.839,2.839,0,1,1,2.839,2.839A2.836,2.836,0,0,1,512.75,479.589Z" transform="translate(-272.058 -260.595)" fill="#aeddf4" fill-rule="evenodd"/>
    <path id="Path_56" data-name="Path 56" d="M659.75,479.589a2.839,2.839,0,1,1,2.839,2.839A2.836,2.836,0,0,1,659.75,479.589Z" transform="translate(-377.371 -260.595)" fill="#aeddf4" fill-rule="evenodd"/>
    <path id="Path_57" data-name="Path 57" d="M560.057,380.543a1.813,1.813,0,0,1-1.806-1.817V358.46a18.948,18.948,0,1,0-37.9,0v20.277a1.806,1.806,0,1,1-3.611,0V358.46a22.56,22.56,0,1,1,45.118,0v20.277A1.81,1.81,0,0,1,560.057,380.543Z" transform="translate(-274.919 -159.589)" fill="#285193" fill-rule="evenodd"/>
    <path id="Path_58" data-name="Path 58" d="M656.891,145.739l-43.532,1.169a7.81,7.81,0,0,0-7.61,8l.561,20.653a7.814,7.814,0,0,0,8.025,7.585l43.533-1.169a7.813,7.813,0,0,0,7.61-8.009l-.561-20.653A7.806,7.806,0,0,0,656.891,145.739Z" transform="translate(-338.681 -23.453)" fill="#285193" fill-rule="evenodd"/>
    <path id="Path_59" data-name="Path 59" d="M664.817,149.9a4.292,4.292,0,0,0-4.426-4.166l-50.46,1.351a4.289,4.289,0,0,0-4.187,4.4l.124,4.537,59.073-1.588Z" transform="translate(-338.678 -23.446)" fill="#f29251" fill-rule="evenodd"/>
    <path id="Path_60" data-name="Path 60" d="M621.829,192.8l43.31-1.11.054,1.915-43.31,1.11Z" transform="translate(-350.203 -56.378)" fill="#fff" fill-rule="evenodd"/>
    <path id="Path_61" data-name="Path 61" d="M622.811,207.8l43.036-1.11.054,1.915-43.035,1.11Z" transform="translate(-350.907 -67.124)" fill="#fff" fill-rule="evenodd"/>
    <path id="Path_62" data-name="Path 62" d="M622.845,224.272l22.66-.577.054,1.915-22.66.577Z" transform="translate(-350.931 -79.303)" fill="#fff" fill-rule="evenodd"/>
    <path id="Path_63" data-name="Path 63" d="M756.022,233.436a4.664,4.664,0,1,1-4.788-4.659A4.738,4.738,0,0,1,756.022,233.436Z" transform="translate(-439.662 -82.943)" fill="#fff" fill-rule="evenodd"/>
    <path id="Path_64" data-name="Path 64" d="M780.357,232.436a4.792,4.792,0,1,1-4.921-4.659A4.793,4.793,0,0,1,780.357,232.436Z" transform="translate(-456.911 -82.227)" fill="#f29251" fill-rule="evenodd"/>
    <path id="Path_65" data-name="Path 65" d="M1168.681,886.162l-71.577,24a7.844,7.844,0,0,0-4.943,9.931l12.824,38.27a7.839,7.839,0,0,0,9.928,4.946l71.575-24a7.843,7.843,0,0,0,4.946-9.931l-12.824-38.27A7.846,7.846,0,0,0,1168.681,886.162Z" transform="translate(-686.863 -553.611)" fill="#285193" fill-rule="evenodd"/>
    <path id="Path_66" data-name="Path 66" d="M1177.476,889.3a6.649,6.649,0,0,0-8.414-4.2l-73.775,24.783a6.669,6.669,0,0,0-4.189,8.432l2.235,6.69,86.366-29.014Z" transform="translate(-686.147 -552.896)" fill="#f29251" fill-rule="evenodd"/>
    <path id="Path_67" data-name="Path 67" d="M1130.48,985.682l62.988-21.188.978,2.929-62.988,21.189Z" transform="translate(-714.608 -610.021)" fill="#fff" fill-rule="evenodd"/>
    <path id="Path_68" data-name="Path 68" d="M1138.47,1007.682l62.712-21.188.973,2.929-62.713,21.189Z" transform="translate(-720.332 -625.782)" fill="#fff" fill-rule="evenodd"/>
    <path id="Path_69" data-name="Path 69" d="M1145.46,1055.46l32.584-10.98.975,2.918-32.587,10.98Z" transform="translate(-725.339 -667.324)" fill="#fff" fill-rule="evenodd"/>
    <path id="Path_70" data-name="Path 70" d="M1348.772,1030.074a7.265,7.265,0,0,1-6.046,8.352,7.357,7.357,0,0,1-8.485-5.95,7.265,7.265,0,0,1,6.046-8.352A7.355,7.355,0,0,1,1348.772,1030.074Z" transform="translate(-860.511 -652.669)" fill="#fff" fill-rule="evenodd"/>
    <path id="Path_71" data-name="Path 71" d="M1383.959,1016.725a7.293,7.293,0,1,1-9.234-4.594A7.3,7.3,0,0,1,1383.959,1016.725Z" transform="translate(-886.025 -643.877)" fill="#f29251" fill-rule="evenodd"/>
    <path id="Path_72" data-name="Path 72" d="M871.732,507.76h13.244v24.932H871.732Z" transform="translate(-529.237 -282.811)" fill="#43d1cd" fill-rule="evenodd"/>
    <path id="Path_73" data-name="Path 73" d="M871.732,595.75h13.244V769.6H871.732Z" transform="translate(-529.237 -345.848)" fill="#5ae2e2" fill-rule="evenodd"/>
    <path id="Path_74" data-name="Path 74" d="M918.732,507.76h13.244v24.932H918.732Z" transform="translate(-562.909 -282.811)" fill="#5ae2e2" fill-rule="evenodd"/>
    <path id="Path_75" data-name="Path 75" d="M918.732,595.75h13.244V769.6H918.732Z" transform="translate(-562.909 -345.848)" fill="#8deff7" fill-rule="evenodd"/>
    <path id="Path_76" data-name="Path 76" d="M824.732,507.76h13.244v24.932H824.732Z" transform="translate(-495.566 -282.811)" fill="#5ae2e2" fill-rule="evenodd"/>
    <path id="Path_77" data-name="Path 77" d="M824.732,595.75h13.244V769.6H824.732Z" transform="translate(-495.566 -345.848)" fill="#8deff7" fill-rule="evenodd"/>
    <path id="Path_78" data-name="Path 78" d="M777.732,595.75V764.961c0,2.566,1.787,4.637,4,4.637h9.246V595.75Z" transform="translate(-461.894 -345.848)" fill="#5ae2e2" fill-rule="evenodd"/>
    <path id="Path_79" data-name="Path 79" d="M777.732,507.76h13.244v24.932H777.732Z" transform="translate(-461.894 -282.811)" fill="#43d1cd" fill-rule="evenodd"/>
    <path id="Path_80" data-name="Path 80" d="M1012.73,507.76h13.244v24.932H1012.73Z" transform="translate(-630.25 -282.811)" fill="#5ae2e2" fill-rule="evenodd"/>
    <path id="Path_81" data-name="Path 81" d="M1012.73,595.75h13.244V769.6H1012.73Z" transform="translate(-630.25 -345.848)" fill="#8deff7" fill-rule="evenodd"/>
    <path id="Path_82" data-name="Path 82" d="M1106.73,507.76h13.244v24.932H1106.73Z" transform="translate(-697.593 -282.811)" fill="#5ae2e2" fill-rule="evenodd"/>
    <path id="Path_83" data-name="Path 83" d="M1106.73,595.75h13.244V769.6H1106.73Z" transform="translate(-697.593 -345.848)" fill="#8deff7" fill-rule="evenodd"/>
    <path id="Path_84" data-name="Path 84" d="M965.732,507.76h13.243v24.932H965.732Z" transform="translate(-596.58 -282.811)" fill="#43d1cd" fill-rule="evenodd"/>
    <path id="Path_85" data-name="Path 85" d="M965.732,595.75h13.243V769.6H965.732Z" transform="translate(-596.58 -345.848)" fill="#5ae2e2" fill-rule="evenodd"/>
    <path id="Path_86" data-name="Path 86" d="M1153.73,507.76h13.244v24.932H1153.73Z" transform="translate(-731.264 -282.811)" fill="#43d1cd" fill-rule="evenodd"/>
    <path id="Path_87" data-name="Path 87" d="M1153.73,595.75V769.6h9.248c2.209,0,4-2.079,4-4.637V595.75Z" transform="translate(-731.264 -345.848)" fill="#5ae2e2" fill-rule="evenodd"/>
    <path id="Path_88" data-name="Path 88" d="M1059.73,595.75h13.244V769.6H1059.73Z" transform="translate(-663.921 -345.848)" fill="#5ae2e2" fill-rule="evenodd"/>
    <path id="Path_89" data-name="Path 89" d="M1059.73,507.76h13.244v24.932H1059.73Z" transform="translate(-663.921 -282.811)" fill="#43d1cd" fill-rule="evenodd"/>
    <path id="Path_90" data-name="Path 90" d="M882.813,479.907H749.552a1.8,1.8,0,0,1-1.8-1.8V444.56a1.8,1.8,0,0,1,1.8-1.8H882.824a1.8,1.8,0,0,1,1.8,1.8V478.1A1.813,1.813,0,0,1,882.813,479.907Z" transform="translate(-440.416 -236.242)" fill="#8deff7" fill-rule="evenodd"/>
    <path id="Path_91" data-name="Path 91" d="M881.606,454.728a5.229,5.229,0,0,1-4.69-2.966c-.186.01-.373.031-.559.042-1.46.1-3.116.209-4.887.313l-30.732,32.012,13.036-1.149.652,10.852,29.406-39.093-.01-.01Z" transform="translate(-507.033 -242.694)" fill="#f7a269" fill-rule="evenodd"/>
    <path id="Path_92" data-name="Path 92" d="M954.23,442.406a5.056,5.056,0,0,1-.562-2.277v-1.194l-.925-.235-3.993,4.053c1.789-.092,3.452-.2,4.908-.306C953.855,442.426,954.043,442.416,954.23,442.406Z" transform="translate(-584.414 -233.336)" fill="#f29251" fill-rule="evenodd"/>
    <path id="Path_93" data-name="Path 93" d="M999.716,451.762A5.272,5.272,0,0,1,995,454.728h-2.231l-.01.01,29.593,39.093L1023,482.98l13.122,1.149L1005.2,452.117c-1.792-.094-3.46-.209-4.917-.313C1000.082,451.783,999.9,451.772,999.716,451.762Z" transform="translate(-615.94 -242.694)" fill="#f7a269" fill-rule="evenodd"/>
    <path id="Path_94" data-name="Path 94" d="M1017.312,438.935v1.194a4.976,4.976,0,0,1-.562,2.277c.187.01.374.031.562.041,1.466.1,3.131.2,4.909.306l-3.993-4.053Z" transform="translate(-633.13 -233.336)" fill="#f29251" fill-rule="evenodd"/>
    <path id="Path_95" data-name="Path 95" d="M993,462.25l.011.009v-.009Z" transform="translate(-616.115 -250.207)" fill="#9f232a" fill-rule="evenodd"/>
    <path id="Path_96" data-name="Path 96" d="M974.257,441.777l-7.507-1.991v1.232a5.3,5.3,0,0,0,5.261,5.33h4.46a5.3,5.3,0,0,0,5.263-5.33v-1.232Z" transform="translate(-597.309 -234.114)" fill="#f29251" fill-rule="evenodd"/>
    <path id="Path_97" data-name="Path 97" d="M883.7,378.19a5.559,5.559,0,0,1,1.335-2.319c-30.892-23.334-34.281-12.707-34.281-12.707l.063.447C852.133,369.331,872.954,375.414,883.7,378.19Z" transform="translate(-514.21 -177.491)" fill="#f29251" fill-rule="evenodd"/>
    <path id="Path_98" data-name="Path 98" d="M868.289,386.75v-1.564a5.382,5.382,0,0,1,.207-1.481c-10.695-2.765-31.41-8.824-32.707-14.521a2.2,2.2,0,0,1-.062-.445s-13.464,18.829,0,21.512c9.232,1.844,24.149,1.16,32.624.549a6,6,0,0,1-.062-.756Z" transform="translate(-499.156 -183.215)" fill="#f7a269" fill-rule="evenodd"/>
    <path id="Path_99" data-name="Path 99" d="M973.159,417.488c-1.749-1.358-3.423-2.614-5.024-3.788a5.315,5.315,0,0,0-1.348,2.277C970.6,416.926,973.159,417.488,973.159,417.488Z" transform="translate(-597.335 -215.425)" fill="#f29251" fill-rule="evenodd"/>
    <path id="Path_100" data-name="Path 100" d="M966,421.719a5.17,5.17,0,0,0-.211,1.47v4.822a4.409,4.409,0,0,0,.063.75c3.95-.278,6.531-.545,6.531-.545V423.24C972.369,423.24,969.81,422.675,966,421.719Z" transform="translate(-596.619 -221.17)" fill="#f29251" fill-rule="evenodd"/>
    <path id="Path_101" data-name="Path 101" d="M1015.093,378.186a5.548,5.548,0,0,0-1.333-2.319c30.9-23.323,34.28-12.706,34.28-12.706l-.062.447C1046.673,369.327,1025.844,375.41,1015.093,378.186Z" transform="translate(-630.988 -177.491)" fill="#f29251" fill-rule="evenodd"/>
    <path id="Path_102" data-name="Path 102" d="M1018.947,386.75v-1.564a5.332,5.332,0,0,0-.207-1.481c10.7-2.765,31.41-8.824,32.709-14.521a2.188,2.188,0,0,0,.062-.445s13.465,18.829,0,21.512c-9.234,1.844-24.15,1.16-32.624.549a6,6,0,0,0,.06-.756Z" transform="translate(-634.556 -183.215)" fill="#f7a269" fill-rule="evenodd"/>
    <path id="Path_103" data-name="Path 103" d="M996.679,417.488c1.682-1.358,3.293-2.614,4.83-3.788a5.356,5.356,0,0,1,1.3,2.277C999.141,416.926,996.679,417.488,996.679,417.488Z" transform="translate(-618.751 -215.425)" fill="#f29251" fill-rule="evenodd"/>
    <path id="Path_104" data-name="Path 104" d="M1002.816,421.719a5.3,5.3,0,0,1,.2,1.47v4.822a4.68,4.68,0,0,1-.062.75c-3.8-.278-6.279-.545-6.279-.545V423.24C996.689,423.24,999.149,422.675,1002.816,421.719Z" transform="translate(-618.751 -221.17)" fill="#f29251" fill-rule="evenodd"/>
    <path id="Path_105" data-name="Path 105" d="M982.22,426.677h-9.191a1.278,1.278,0,0,1-1.279-1.279v-9.369a1.278,1.278,0,0,1,1.279-1.279h9.191a1.277,1.277,0,0,1,1.279,1.279V425.4A1.284,1.284,0,0,1,982.22,426.677Z" transform="translate(-600.891 -216.178)" fill="#f7a269" fill-rule="evenodd"/>
    <path id="Path_106" data-name="Path 106" d="M394.745,820.741H543.189v28.692H394.745Z" transform="translate(-187.518 -507.035)" fill="#f29251" fill-rule="evenodd"/>
    <path id="Path_107" data-name="Path 107" d="M518.042,783.54H345.427a2.678,2.678,0,0,1-2.68-2.677V741.421a2.679,2.679,0,0,1,2.68-2.677H518.042a2.679,2.679,0,0,1,2.68,2.677v39.442A2.678,2.678,0,0,1,518.042,783.54Z" transform="translate(-150.265 -448.291)" fill="#f7a269" fill-rule="evenodd"/>
    <path id="Path_108" data-name="Path 108" d="M400.142,1186.411h137.65a5.429,5.429,0,0,0,5.4-5.456v-4.174H394.745v4.174A5.429,5.429,0,0,0,400.142,1186.411Z" transform="translate(-187.518 -762.106)" fill="#f7a269" fill-rule="evenodd"/>
    <path id="Path_109" data-name="Path 109" d="M394.745,1120.77H543.189v16.008H394.745Z" transform="translate(-187.518 -721.979)" fill="#f29251" fill-rule="evenodd"/>
    <path id="Path_110" data-name="Path 110" d="M394.745,944.766H543.189v16.01H394.745Z" transform="translate(-187.518 -595.888)" fill="#f29251" fill-rule="evenodd"/>
    <path id="Path_111" data-name="Path 111" d="M394.745,1001.74H543.189v33.727H394.745Z" transform="translate(-187.518 -636.705)" fill="#f7a269" fill-rule="evenodd"/>
    <path id="Path_112" data-name="Path 112" d="M394.745,921.786H543.189v6.636H394.745Z" transform="translate(-187.518 -579.425)" fill="#f7a269" fill-rule="evenodd"/>
    <path id="Path_113" data-name="Path 113" d="M640.359,772.129v-27.4H619.75V771.6l10.3-12.707Z" transform="translate(-348.714 -452.581)" fill="#43d1cd" fill-rule="evenodd"/>
    <path id="Path_114" data-name="Path 114" d="M630.055,794.75l-10.3,12.79v105.2h20.609V808.07Z" transform="translate(-348.714 -488.415)" fill="#8deff7" fill-rule="evenodd"/>
    <path id="Path_115" data-name="Path 115" d="M555.121,749.458a4.772,4.772,0,0,1-4.284-2.7c-.166.01-.343.021-.509.042-1.331.094-2.849.2-4.471.282L517.75,776.257l11.927-1.045.593,9.884,26.9-35.617-.01-.01h-2.038Z" transform="translate(-275.64 -454.036)" fill="#8deff7" fill-rule="evenodd"/>
    <path id="Path_116" data-name="Path 116" d="M621.741,738.406a5.11,5.11,0,0,1-.51-2.188v-1.142l-.842-.226-3.639,3.89c1.622-.086,3.14-.194,4.471-.291C621.4,738.438,621.575,738.428,621.741,738.406Z" transform="translate(-346.565 -445.501)" fill="#43d1cd" fill-rule="evenodd"/>
    <path id="Path_117" data-name="Path 117" d="M663.072,746.763a4.784,4.784,0,0,1-4.284,2.7H656.76l-.01.01,26.9,35.617.593-9.884,11.927,1.045-28.106-29.171c-1.622-.083-3.14-.188-4.471-.282A4.335,4.335,0,0,1,663.072,746.763Z" transform="translate(-375.221 -454.036)" fill="#8deff7" fill-rule="evenodd"/>
    <path id="Path_118" data-name="Path 118" d="M679.26,735.076v1.142a5.146,5.146,0,0,1-.51,2.188c.167.011.343.022.51.043,1.331.1,2.849.2,4.471.291l-3.639-3.89Z" transform="translate(-390.982 -445.501)" fill="#43d1cd" fill-rule="evenodd"/>
    <path id="Path_119" data-name="Path 119" d="M656.25,757v.011l.009-.011Z" transform="translate(-374.863 -461.37)" fill="#9f232a" fill-rule="evenodd"/>
    <path id="Path_120" data-name="Path 120" d="M639.519,737.6l-6.787-1.812V736.9a4.811,4.811,0,0,0,4.763,4.856h4.039A4.8,4.8,0,0,0,646.3,736.9v-1.116Z" transform="translate(-358.014 -446.172)" fill="#43d1cd" fill-rule="evenodd"/>
    <path id="Path_121" data-name="Path 121" d="M557.485,679.736a4.986,4.986,0,0,1,1.209-2.123c-27.911-21.364-30.96-11.639-30.96-11.639l.062.408C528.974,671.621,547.778,677.195,557.485,679.736Z" transform="translate(-282.793 -394.576)" fill="#43d1cd" fill-rule="evenodd"/>
    <path id="Path_122" data-name="Path 122" d="M543.153,688.221v-1.435a5.208,5.208,0,0,1,.188-1.352c-9.815-2.527-28.827-8.069-30.019-13.278a2.748,2.748,0,0,1-.063-.406s-12.365,17.219,0,19.673c8.466,1.685,22.159,1.061,29.946.5a5.056,5.056,0,0,1-.052-.7Z" transform="translate(-268.486 -400.296)" fill="#8deff7" fill-rule="evenodd"/>
    <path id="Path_123" data-name="Path 123" d="M638.59,715.406c-1.591-1.287-3.118-2.478-4.572-3.594a5.184,5.184,0,0,0-1.232,2.159C636.262,714.875,638.59,715.406,638.59,715.406Z" transform="translate(-358.053 -428.997)" fill="#43d1cd" fill-rule="evenodd"/>
    <path id="Path_124" data-name="Path 124" d="M631.975,719.679a4.535,4.535,0,0,0-.189,1.316v4.325a4.8,4.8,0,0,0,.052.679c3.6-.253,5.951-.486,5.951-.486v-4.466C637.779,721.046,635.451,720.54,631.975,719.679Z" transform="translate(-357.337 -434.633)" fill="#43d1cd" fill-rule="evenodd"/>
    <path id="Path_125" data-name="Path 125" d="M676.978,679.736a4.975,4.975,0,0,0-1.22-2.123c28.157-21.364,31.234-11.639,31.234-11.639l-.063.408C705.74,671.621,686.771,677.195,676.978,679.736Z" transform="translate(-388.839 -394.576)" fill="#43d1cd" fill-rule="evenodd"/>
    <path id="Path_126" data-name="Path 126" d="M679.952,688.221v-1.435a5.206,5.206,0,0,0-.188-1.352c9.815-2.527,28.827-8.069,30.019-13.278a2.717,2.717,0,0,0,.063-.406s12.365,17.219,0,19.673c-8.466,1.685-22.159,1.061-29.946.5a5.056,5.056,0,0,0,.052-.7Z" transform="translate(-391.709 -400.296)" fill="#8deff7" fill-rule="evenodd"/>
    <path id="Path_127" data-name="Path 127" d="M659.786,715.406c1.59-1.287,3.118-2.478,4.571-3.594a5.184,5.184,0,0,1,1.232,2.159C662.124,714.875,659.786,715.406,659.786,715.406Z" transform="translate(-377.396 -428.997)" fill="#43d1cd" fill-rule="evenodd"/>
    <path id="Path_128" data-name="Path 128" d="M665.6,719.679A4.537,4.537,0,0,1,665.79,721v4.325a4.792,4.792,0,0,1-.052.679c-3.6-.253-5.951-.486-5.951-.486v-4.466S662.124,720.54,665.6,719.679Z" transform="translate(-377.396 -434.633)" fill="#43d1cd" fill-rule="evenodd"/>
    <path id="Path_129" data-name="Path 129" d="M646.812,723.841h-7.559a1.542,1.542,0,0,1-1.526-1.564V714.36a1.542,1.542,0,0,1,1.526-1.565h7.559a1.542,1.542,0,0,1,1.526,1.565v7.917A1.542,1.542,0,0,1,646.812,723.841Z" transform="translate(-361.593 -429.701)" fill="#8deff7" fill-rule="evenodd"/>
    <path id="Path_130" data-name="Path 130" d="M619.75,896.75h20.609v8.235H619.75Z" transform="translate(-348.714 -561.489)" fill="#43d1cd" fill-rule="evenodd"/>
    <path id="Path_131" data-name="Path 131" d="M255.378,1008.362c-55.37-25.835-76.312-35.525-121.628-78.633,14.162-16.3,29.021-31.9,43.412-47.985,37.6,33.18,58.885,47.673,104.928,68.2C272.919,969.289,264.362,988.919,255.378,1008.362Z" transform="translate(-0.537 -550.738)" fill="#285193" fill-rule="evenodd"/>
    <path id="Path_132" data-name="Path 132" d="M277.846,1024.754c-48.623-20.475-68.984-31.8-107.1-69.19,10.8-13.008,22.52-25.132,33.682-37.817,30.495,30.534,54.822,45.048,94.371,61.471C291.52,994.263,284.979,1009.651,277.846,1024.754Z" transform="translate(-27.042 -576.532)" fill="#b1fafc" fill-rule="evenodd"/>
    <path id="Path_133" data-name="Path 133" d="M498.436,1168.736a8.17,8.17,0,0,1-10.342,4.192,6.71,6.71,0,0,1-3.485-9.693,8.079,8.079,0,0,1,10.229-3.888A6.672,6.672,0,0,1,498.436,1168.736Z" transform="translate(-251.259 -749.187)" fill="#285193" fill-rule="evenodd"/>
    <path id="Path_134" data-name="Path 134" d="M276.064,1027.241a6.927,6.927,0,0,1-10.637.672,8.534,8.534,0,0,1-.738-11.613,6.84,6.84,0,0,1,10.4-.332A8.386,8.386,0,0,1,276.064,1027.241Z" transform="translate(-92.954 -645.298)" fill="#285193" fill-rule="evenodd"/>
    <path id="Path_135" data-name="Path 135" d="M612.634,1121.108a6.307,6.307,0,0,1-8.24,3.057,5.537,5.537,0,0,1-2.995-7.767,6.377,6.377,0,0,1,8.241-3.142A5.681,5.681,0,0,1,612.634,1121.108Z" transform="translate(-335.116 -716.232)" fill="#285193" fill-rule="evenodd"/>
    <path id="Path_136" data-name="Path 136" d="M538.164,1281.561a6.5,6.5,0,0,1-8.534,3.256,5.842,5.842,0,0,1-3.246-8.114,6.7,6.7,0,0,1,8.649-3.426A5.948,5.948,0,0,1,538.164,1281.561Z" transform="translate(-281.385 -830.872)" fill="#285193" fill-rule="evenodd"/>
    <path id="Path_137" data-name="Path 137" d="M279,906.388a5.423,5.423,0,0,1-8.246.063c-2.329-2.44-2.8-6.073-.509-8.649a5.714,5.714,0,0,1,8.443-.325A6.453,6.453,0,0,1,279,906.388Z" transform="translate(-97.253 -560.786)" fill="#285193" fill-rule="evenodd"/>
    <path id="Path_138" data-name="Path 138" d="M159.478,1038.026c-2.358,2.822-6.111,2.657-8.653.125a6.738,6.738,0,0,1-.543-9.214,5.728,5.728,0,0,1,8.684-.4A7.025,7.025,0,0,1,159.478,1038.026Z" transform="translate(-11.256 -654.612)" fill="#285193" fill-rule="evenodd"/>
    <path id="Path_139" data-name="Path 139" d="M387.245,1132.75c-1.132,1.685-2.285,3.358-3.395,5.042,1.616.593,3.2.709,4.235-.749a2.185,2.185,0,0,0,.4-1.911A7.232,7.232,0,0,0,387.245,1132.75Z" transform="translate(-179.712 -730.562)" fill="#285193" fill-rule="evenodd"/>
    <path id="Path_140" data-name="Path 140" d="M394.288,1096.758a2.268,2.268,0,0,0-.4,1.778,6.521,6.521,0,0,0,1.164,2.308c1.024-1.54,2.015-3.1,3.039-4.648a4.478,4.478,0,0,0-2.274-.417A2.019,2.019,0,0,0,394.288,1096.758Z" transform="translate(-186.876 -704.053)" fill="#285193" fill-rule="evenodd"/>
    <path id="Path_141" data-name="Path 141" d="M361.016,1057.813c-8.805-5.547-18.7.953-24.134,8.726s-8.567,21.479,1.089,27.377,20.286-2.586,25.119-10.671S369.811,1063.36,361.016,1057.813Zm-10.641,28.693a9.875,9.875,0,0,1-5.7-.941c-.757,1.168-1.5,2.328-2.251,3.508-.674-.414-1.359-.839-2.033-1.262.726-1.14,1.473-2.277,2.209-3.417a18.448,18.448,0,0,1-5.268-5.215c.757-1.109,1.525-2.206,2.281-3.3a18.885,18.885,0,0,0,2.23,3.1,16.046,16.046,0,0,0,2.717,2.442c1.3-1.945,2.624-3.871,3.868-5.859-.218-.32-.684-.961-.861-1.242a11.368,11.368,0,0,1-2.023-4.512,5.479,5.479,0,0,1,.985-3.976,4.815,4.815,0,0,1,3.671-2.308,9.726,9.726,0,0,1,5.144,1.129c.55-.817,1.048-1.656,1.576-2.484.633.383,1.255.777,1.888,1.16-.508.817-1.016,1.645-1.535,2.462a21.2,21.2,0,0,1,4.75,4.577c-.913.7-1.825,1.407-2.728,2.121a19.621,19.621,0,0,0-3.8-3.84c-1.13,1.832-2.313,3.622-3.454,5.453.187.27.653.882.8,1.1,1,1.441,2.126,3.1,2.292,4.722a4.943,4.943,0,0,1-.83,3.8A5.875,5.875,0,0,1,350.376,1086.507Z" transform="translate(-142.382 -675.392)" fill="#285193" fill-rule="evenodd"/>
    <path id="Path_142" data-name="Path 142" d="M511.807,962.069a18.757,18.757,0,1,1-23.869,11.33A18.8,18.8,0,0,1,511.807,962.069Z" transform="translate(-253.493 -607.491)" fill="#ed8945" fill-rule="evenodd"/>
    <path id="Path_143" data-name="Path 143" d="M526.646,981.934a16.963,16.963,0,1,1-18.889-14.889A17.059,17.059,0,0,1,526.646,981.934Z" transform="translate(-257.799 -611.758)" fill="#f7a269" fill-rule="evenodd"/>
    <path id="Path_144" data-name="Path 144" d="M526.37,984.785a12.26,12.26,0,0,1,6.15,16.294,12.448,12.448,0,0,1-16.429,6.1,12.262,12.262,0,0,1-6.15-16.295A12.448,12.448,0,0,1,526.37,984.785Z" transform="translate(-269.245 -623.764)" fill="#f29251" fill-rule="evenodd"/>
    <path id="Path_145" data-name="Path 145" d="M541.985,1010.5l-.514-2.266a7.016,7.016,0,0,1-3.725-.227l.21-1.628a6.366,6.366,0,0,0,3.515.258c1.626-.352,2.518-1.514,2.235-2.791-.273-1.236-1.343-1.8-3.19-2.113-2.539-.391-4.208-1.112-4.648-3.068a3.764,3.764,0,0,1,2.644-4.367L538,992.033l1.417-.309.493,2.183a6.415,6.415,0,0,1,3.148.144l-.241,1.608a5.853,5.853,0,0,0-3.053-.145c-1.763.38-2.193,1.554-1.994,2.462.262,1.163,1.238,1.565,3.41,1.945,2.571.434,4.019,1.35,4.47,3.346a4,4,0,0,1-2.76,4.605l.525,2.337Z" transform="translate(-288.553 -629.529)" fill="#fff" fill-rule="evenodd"/>
    <path id="Path_146" data-name="Path 146" d="M407.424,665.424a10.352,10.352,0,1,1,0-14.641A10.348,10.348,0,0,1,407.424,665.424Z" transform="translate(-183.939 -383.102)" fill="#b1fafc" fill-rule="evenodd"/>
    <path id="Path_147" data-name="Path 147" d="M409.853,666.853a9.427,9.427,0,1,1,0-13.332A9.434,9.434,0,0,1,409.853,666.853Z" transform="translate(-186.814 -385.26)" fill="#285193" fill-rule="evenodd"/>
    <path id="Path_148" data-name="Path 148" d="M416.327,666.53a6.8,6.8,0,1,1-6.8-6.8A6.8,6.8,0,0,1,416.327,666.53Z" transform="translate(-193.24 -391.686)" fill="#b1fafc" fill-rule="evenodd"/>
    <path id="Path_149" data-name="Path 149" d="M413.823,677.133l.915-.915a3.688,3.688,0,0,1-.988-1.789l.822-.385a3.384,3.384,0,0,0,.915,1.7,1.341,1.341,0,0,0,1.965.187c.5-.5.458-1.165.052-2.1-.562-1.289-.717-2.277.073-3.067a2.108,2.108,0,0,1,2.828-.094l.915-.915.561.562L421,671.2a3.443,3.443,0,0,1,.863,1.5l-.822.374a3.027,3.027,0,0,0-.832-1.445,1.161,1.161,0,0,0-1.736-.177c-.468.468-.374,1.04.094,2.152.551,1.31.551,2.256-.25,3.067a2.229,2.229,0,0,1-2.974.1l-.946.946Z" transform="translate(-201.133 -398.863)" fill="#285193" fill-rule="evenodd"/>
    <path id="Path_150" data-name="Path 150" d="M883.672,725.812l71.085-.062A10.951,10.951,0,0,1,965.706,736.7l.113,145.191a10.948,10.948,0,0,1-10.927,10.969l-71.086.062a10.95,10.95,0,0,1-10.948-10.949l-.114-145.19A10.95,10.95,0,0,1,883.672,725.812Z" transform="translate(-529.963 -438.982)" fill="#285193" fill-rule="evenodd"/>
    <path id="Path_151" data-name="Path 151" d="M892.706,764.814l71.346-.062a6.968,6.968,0,0,1,6.971,6.971l.1,132.247a6.966,6.966,0,0,1-6.959,6.979l-71.348.065a6.969,6.969,0,0,1-6.97-6.973l-.1-132.245A6.954,6.954,0,0,1,892.706,764.814Z" transform="translate(-539.278 -466.924)" fill="#fff" fill-rule="evenodd"/>
    <path id="Path_152" data-name="Path 152" d="M988.75,742.935h0a1.163,1.163,0,0,1,1.165-1.165l24.466-.021a1.162,1.162,0,0,1,1.166,1.165h0a1.162,1.162,0,0,1-1.166,1.164l-24.466.021A1.17,1.17,0,0,1,988.75,742.935Z" transform="translate(-613.07 -450.445)" fill="#173e77" fill-rule="evenodd"/>
    <path id="Path_153" data-name="Path 153" d="M885.756,871.75h85.568V973.787H885.756Z" transform="translate(-539.284 -543.578)" fill="#b1fafc" fill-rule="evenodd"/>
    <path id="Path_154" data-name="Path 154" d="M1003.765,808.692l-39.719.03a1.253,1.253,0,0,1-1.285-1.221v-.625a1.253,1.253,0,0,1,1.285-1.221l39.719-.03a1.252,1.252,0,0,1,1.285,1.221v.625A1.252,1.252,0,0,1,1003.765,808.692Z" transform="translate(-594.452 -496.206)" fill="#b1fafc" fill-rule="evenodd"/>
    <path id="Path_155" data-name="Path 155" d="M986.095,828.079l-22.42.021a.928.928,0,0,1-.925-.926V826.7a.928.928,0,0,1,.925-.926l22.42-.021a.928.928,0,0,1,.925.925v.478A.921.921,0,0,1,986.095,828.079Z" transform="translate(-594.444 -510.623)" fill="#b1fafc" fill-rule="evenodd"/>
    <path id="Path_156" data-name="Path 156" d="M914.986,801.354a6.627,6.627,0,1,1-6.632-6.622A6.631,6.631,0,0,1,914.986,801.354Z" transform="translate(-550.73 -488.402)" fill="#db7b3a" fill-rule="evenodd"/>
    <path id="Path_157" data-name="Path 157" d="M1140.949,807.831a1.085,1.085,0,1,1-1.089-1.071A1.083,1.083,0,0,1,1140.949,807.831Zm2.479-1.081a1.076,1.076,0,1,0,1.089,1.071A1.073,1.073,0,0,0,1143.428,806.75Zm3.568,0a1.086,1.086,0,0,0-1.092,1.081A1.086,1.086,0,1,0,1147,806.75Z" transform="translate(-720.554 -497.012)" fill="#b1fafc" fill-rule="evenodd"/>
    <path id="Path_158" data-name="Path 158" d="M1032.708,1248.748a2.959,2.959,0,1,1-2.961-2.958A2.963,2.963,0,0,1,1032.708,1248.748Z" transform="translate(-640.323 -811.545)" fill="#b1fafc" fill-rule="evenodd"/>
    <path id="Path_159" data-name="Path 159" d="M1107.68,1245.79h5.68v5.907h-5.68Z" transform="translate(-698.273 -811.545)" fill="#b1fafc" fill-rule="evenodd"/>
    <path id="Path_160" data-name="Path 160" d="M946.786,1245.79H952.7v5.907h-5.909Z" transform="translate(-583.007 -811.545)" fill="#b1fafc" fill-rule="evenodd"/>
    <path id="Path_161" data-name="Path 161" d="M942.745,1009.73h53.77v10.342h-53.77Z" transform="translate(-580.112 -642.429)" fill="#f29251" fill-rule="evenodd"/>
    <path id="Path_162" data-name="Path 162" d="M985.807,995.912H926.214a2.458,2.458,0,0,1-2.464-2.453V982.186a2.456,2.456,0,0,1,2.464-2.451h59.593a2.457,2.457,0,0,1,2.464,2.451v11.273A2.458,2.458,0,0,1,985.807,995.912Z" transform="translate(-566.504 -620.94)" fill="#f7a269" fill-rule="evenodd"/>
    <path id="Path_163" data-name="Path 163" d="M944.707,1142.341h49.857a1.973,1.973,0,0,0,1.951-2v-1.531h-53.77v1.531A1.976,1.976,0,0,0,944.707,1142.341Z" transform="translate(-580.112 -734.904)" fill="#f7a269" fill-rule="evenodd"/>
    <path id="Path_164" data-name="Path 164" d="M942.745,1118.68h53.77v5.621h-53.77Z" transform="translate(-580.112 -720.482)" fill="#f7a269" fill-rule="evenodd"/>
    <path id="Path_165" data-name="Path 165" d="M942.745,1054.79h53.77v5.845h-53.77Z" transform="translate(-580.112 -674.711)" fill="#f7a269" fill-rule="evenodd"/>
    <path id="Path_166" data-name="Path 166" d="M942.745,1074.77h53.77v12.367h-53.77Z" transform="translate(-580.112 -689.025)" fill="#f7a269" fill-rule="evenodd"/>
    <path id="Path_167" data-name="Path 167" d="M942.745,1046.75h53.77v2.371h-53.77Z" transform="translate(-580.112 -668.951)" fill="#f7a269" fill-rule="evenodd"/>
    <path id="Path_168" data-name="Path 168" d="M1031.447,991.952V981.795h-7.637v9.958l3.82-4.7Z" transform="translate(-638.188 -622.416)" fill="#efefef" fill-rule="evenodd"/>
    <path id="Path_169" data-name="Path 169" d="M1027.63,1000.75l-3.82,4.628v38.1h7.637v-37.9Z" transform="translate(-638.188 -635.996)" fill="#fff" fill-rule="evenodd"/>
    <path id="Path_170" data-name="Path 170" d="M1000.288,983.776a1.708,1.708,0,0,1-1.548-.99c-.062,0-.125.01-.187.01-.479.031-1.029.074-1.622.105l-10.181,10.65,4.316-.38.218,3.613,9.741-13.009h-.737Z" transform="translate(-611.638 -623.126)" fill="#fff" fill-rule="evenodd"/>
    <path id="Path_171" data-name="Path 171" d="M1024.559,979.816a1.581,1.581,0,0,1-.187-.724V978.7l-.3-.079-1.322,1.3c.593-.03,1.134-.06,1.622-.1C1024.434,979.826,1024.5,979.816,1024.559,979.816Z" transform="translate(-637.428 -620.145)" fill="#efefef" fill-rule="evenodd"/>
    <path id="Path_172" data-name="Path 172" d="M1040.039,982.786a1.74,1.74,0,0,1-1.551.99h-.737l9.744,13.009.218-3.613,4.313.38-10.178-10.65c-.593-.031-1.134-.063-1.622-.105C1040.152,982.8,1040.09,982.786,1040.039,982.786Z" transform="translate(-648.175 -623.126)" fill="#fff" fill-rule="evenodd"/>
    <path id="Path_173" data-name="Path 173" d="M1045.937,978.7v.387a1.581,1.581,0,0,1-.187.724c.062,0,.125.01.187.01.479.03,1.029.069,1.622.1l-1.322-1.3Z" transform="translate(-653.906 -620.145)" fill="#efefef" fill-rule="evenodd"/>
    <path id="Path_174" data-name="Path 174" d="M1037.25,986.25v.009l.009-.009Z" transform="translate(-647.816 -625.608)" fill="#9f232a" fill-rule="evenodd"/>
    <path id="Path_175" data-name="Path 175" d="M1031.226,979.395l-2.476-.645v.406a1.739,1.739,0,0,0,1.736,1.736h1.477a1.739,1.739,0,0,0,1.736-1.736v-.406Z" transform="translate(-641.727 -620.235)" fill="#efefef" fill-rule="evenodd"/>
    <path id="Path_176" data-name="Path 176" d="M1001.594,958.617a2.033,2.033,0,0,1,.437-.78c-10.169-7.794-11.281-4.245-11.281-4.245l.021.147C991.207,955.657,998.061,957.69,1001.594,958.617Z" transform="translate(-614.503 -601.634)" fill="#efefef" fill-rule="evenodd"/>
    <path id="Path_177" data-name="Path 177" d="M996.6,961.609V961.1a1.463,1.463,0,0,1,.074-.483c-3.562-.9-10.461-2.889-10.891-4.75a.679.679,0,0,1-.021-.144s-4.482,6.168,0,7.042c3.079.607,8.042.38,10.869.175a1.806,1.806,0,0,1-.02-.247v-1.079Z" transform="translate(-609.502 -603.735)" fill="#fff" fill-rule="evenodd"/>
    <path id="Path_178" data-name="Path 178" d="M1030.82,971.836c-.573-.437-1.115-.844-1.633-1.211a1.621,1.621,0,0,0-.437.734C1029.978,971.657,1030.82,971.836,1030.82,971.836Z" transform="translate(-641.727 -614.414)" fill="#efefef" fill-rule="evenodd"/>
    <path id="Path_179" data-name="Path 179" d="M1028.824,972.75a1.879,1.879,0,0,0-.074.489v1.612a2.46,2.46,0,0,0,.02.25c1.29-.094,2.121-.177,2.121-.177V973.26C1030.9,973.26,1030.06,973.073,1028.824,972.75Z" transform="translate(-641.727 -615.936)" fill="#efefef" fill-rule="evenodd"/>
    <path id="Path_180" data-name="Path 180" d="M1045.187,958.617a1.962,1.962,0,0,0-.437-.78c10.169-7.794,11.281-4.245,11.281-4.245l-.02.147C1055.574,955.657,1048.723,957.69,1045.187,958.617Z" transform="translate(-653.19 -601.634)" fill="#efefef" fill-rule="evenodd"/>
    <path id="Path_181" data-name="Path 181" d="M1045.844,961.609V961.1a1.542,1.542,0,0,0-.074-.483c3.559-.9,10.462-2.889,10.89-4.75a.627.627,0,0,0,.02-.144s4.484,6.168,0,7.042c-3.068.607-8.04.38-10.867.175a2.4,2.4,0,0,0,.02-.247v-1.079Z" transform="translate(-653.92 -603.735)" fill="#fff" fill-rule="evenodd"/>
    <path id="Path_182" data-name="Path 182" d="M1038.75,971.836c.573-.437,1.112-.844,1.633-1.211a1.647,1.647,0,0,1,.437.734C1039.581,971.657,1038.75,971.836,1038.75,971.836Z" transform="translate(-648.891 -614.414)" fill="#efefef" fill-rule="evenodd"/>
    <path id="Path_183" data-name="Path 183" d="M1040.82,972.75a2,2,0,0,1,.071.489v1.612a1.832,1.832,0,0,1-.02.25c-1.29-.094-2.121-.177-2.121-.177V973.26C1038.738,973.26,1039.572,973.073,1040.82,972.75Z" transform="translate(-648.891 -615.936)" fill="#efefef" fill-rule="evenodd"/>
    <path id="Path_184" data-name="Path 184" d="M1033.936,974.569h-2.655a.582.582,0,0,1-.581-.582v-2.705a.582.582,0,0,1,.581-.582h2.655a.58.58,0,0,1,.581.582v2.705A.58.58,0,0,1,1033.936,974.569Z" transform="translate(-643.124 -614.467)" fill="#fff" fill-rule="evenodd"/>
    <path id="Path_185" data-name="Path 185" d="M1023.81,1037.62h7.637v2.85h-7.637Z" transform="translate(-638.188 -662.41)" fill="#efefef" fill-rule="evenodd"/>
    <path id="Path_186" data-name="Path 186" d="M915.75,807.786h5.324v6.72H915.75Z" transform="translate(-560.772 -497.754)" fill="#fff" fill-rule="evenodd"/>
    <path id="Path_187" data-name="Path 187" d="M914.786,809.786h6.025v6.72h-6.025Z" transform="translate(-560.082 -499.187)" fill="#fff" fill-rule="evenodd"/>
    <path id="Path_188" data-name="Path 188" d="M922.171,803.283a.14.14,0,0,1-.143-.143v-1.623a1.521,1.521,0,0,0-3.042,0v1.623a.143.143,0,1,1-.286,0v-1.623a1.817,1.817,0,0,1,3.634,0v1.623A.185.185,0,0,1,922.171,803.283Z" transform="translate(-562.886 -491.961)" fill="#fff" fill-rule="evenodd"/>
    <path id="Path_189" data-name="Path 189" d="M918.25,812.437a.187.187,0,1,1,.187.187A.189.189,0,0,1,918.25,812.437Z" transform="translate(-562.563 -500.952)" fill="#fff" fill-rule="evenodd"/>
    <path id="Path_190" data-name="Path 190" d="M930.25,812.437a.187.187,0,1,1,.187.187A.189.189,0,0,1,930.25,812.437Z" transform="translate(-571.16 -500.952)" fill="#fff" fill-rule="evenodd"/>
    <path id="Path_191" data-name="Path 191" d="M922.171,804.283a.14.14,0,0,1-.143-.143v-1.623a1.521,1.521,0,0,0-3.042,0v1.623a.143.143,0,1,1-.286,0v-1.623a1.817,1.817,0,0,1,3.634,0v1.623A.173.173,0,0,1,922.171,804.283Z" transform="translate(-562.886 -492.677)" fill="#fff" fill-rule="evenodd"/>
  </g>
</svg>
