<svg xmlns="http://www.w3.org/2000/svg" width="366.27" height="271.41" viewBox="0 0 366.27 271.41">
  <g id="Group_13" data-name="Group 13" transform="translate(-208.384 -7386.889)">
    <g id="up_to_date" data-name="up to date" transform="translate(208.384 7389.148)">
      <path id="Path_517" data-name="Path 517" d="M905.718,510.5a.45.45,0,0,1-.114.018q-9.8.5-19.578,1.476h-.011c-.027,0-.05,0-.076.009q-10.037,1.008-20.031,2.524c-.282.044-.561.088-.839.128q-6.912,1.067-13.8,2.369-3.039.577-6.066,1.2c-.256.053-.507.1-.763.159v-1.339c.256-.057.511-.106.763-.159q10.083-2.068,20.234-3.611,2.552-.4,5.112-.751,7.393-1.034,14.809-1.785l1.084-.106q9.493-.935,19.013-1.419a.31.31,0,0,1,.092.009C906.157,509.28,906.286,510.341,905.718,510.5Z" transform="translate(-588.468 -358.191)" fill="#fff"/>
      <path id="Path_518" data-name="Path 518" d="M925.412,537.832c-8.141.069-16.161-3.93-21.919-10.549a34.087,34.087,0,0,1-4.267-6.218c-.388-.721-1.3.074-.911.789a32.9,32.9,0,0,0,20.134,16.4,26.793,26.793,0,0,0,7.109.881c.73-.006.579-1.313-.146-1.307Z" transform="translate(-621.732 -364.649)" fill="#fff"/>
      <path id="Path_519" data-name="Path 519" d="M857.74,480.95a.69.69,0,0,1-.477.5,22.968,22.968,0,0,0-5.371,2.431,26.865,26.865,0,0,0-6.687,5.856c-.1.119-.2.239-.3.362-.16.194-.313.393-.465.6v-1.927c.244-.3.5-.6.763-.879a28.241,28.241,0,0,1,5.062-4.437A72.821,72.821,0,0,1,857.74,480.95Z" transform="translate(-588.468 -342.422)" fill="#fff"/>
      <path id="Path_520" data-name="Path 520" d="M963.975,482.8a28.167,28.167,0,0,0-12.368,12.633.7.7,0,0,0,.3.864.556.556,0,0,0,.745-.35A26.77,26.77,0,0,1,964.4,484.021c.673-.333.247-1.555-.428-1.221Z" transform="translate(-654.724 -343.422)" fill="#fff"/>
      <path id="Path_522" data-name="Path 522" d="M911.4,361.385v0a.572.572,0,0,1-.092.075q-8.469,5.708-16.724,11.831l-.019.013a.666.666,0,0,1-.069.049q-8.486,6.3-16.732,13.02l-.694.566q-5.694,4.66-11.269,9.52-10.529,9.188-20.6,19.057c-.255.248-.507.5-.763.751v-1.719c.252-.252.508-.5.763-.751q3.857-3.772,7.782-7.438c.782-.729,1.568-1.458,2.354-2.179q10.472-9.659,21.413-18.6h0q2.152-1.757,4.311-3.482,6.134-4.892,12.406-9.551c.3-.225.606-.451.911-.676q8.029-5.94,16.266-11.491a.531.531,0,0,1,.084-.049C911.306,360.073,911.844,360.948,911.4,361.385Z" transform="translate(-588.467 -275.086)" fill="#fff"/>
      <path id="Path_523" data-name="Path 523" d="M960.642,420.062A27.413,27.413,0,0,1,937,422.516a27.823,27.823,0,0,1-6.272-3.211c-.633-.43-1.118.763-.491,1.189a28.357,28.357,0,0,0,31.056.646C961.94,420.742,961.282,419.666,960.642,420.062Z" transform="translate(-641.355 -307.969)" fill="#fff"/>
      <path id="Path_524" data-name="Path 524" d="M868.907,421.933a35.008,35.008,0,0,1-.363-7.013,35.626,35.626,0,0,1,4.113-15.093q2.681-3.274,5.617-6.237a.821.821,0,0,1-.224.7,28.142,28.142,0,0,0-3.781,5.042,34.471,34.471,0,0,0-4.228,22.492.6.6,0,0,1-.12.505.556.556,0,0,1-.6.139A.692.692,0,0,1,868.907,421.933Z" transform="translate(-603.35 -293.67)" fill="#fff"/>
      <path id="Path_525" data-name="Path 525" d="M978.264,346.312a33.637,33.637,0,0,0-5.887,17.844.6.6,0,0,0,.614.6.653.653,0,0,0,.52-.711,31.988,31.988,0,0,1,5.622-16.883c.463-.658-.4-1.51-.868-.851Z" transform="translate(-667.598 -267.154)" fill="#fff"/>
      <path id="Path_527" data-name="Path 527" d="M849.779,324.686a.522.522,0,0,1-.042.124q-2.317,5.217-4.532,10.487c-.256.605-.511,1.215-.763,1.821v-3.005q.378-.9.763-1.8,1.711-4.017,3.479-8a.6.6,0,0,1,.046-.088A.579.579,0,0,1,849.779,324.686Z" transform="translate(-588.468 -254.801)" fill="#fff"/>
      <path id="Path_528" data-name="Path 528" d="M859.75,379.991c-.068.141-.137.283-.214.424a35.53,35.53,0,0,1-3.975,6.293,33.488,33.488,0,0,1-10.357,8.737c-.252.141-.507.274-.763.4v-1.436c.256-.133.511-.27.763-.411a33.18,33.18,0,0,0,13.493-14.5.64.64,0,0,1,.425-.35.565.565,0,0,1,.506.142.518.518,0,0,1,.187.324A.575.575,0,0,1,859.75,379.991Z" transform="translate(-588.468 -285.6)" fill="#fff"/>
      <path id="Path_529" data-name="Path 529" d="M430.177,182.084v33.588h-.763v-.358H174.2v.358h-.763V182.084c.007-8.051,5.639-14.576,12.589-14.584H417.589C424.538,167.508,430.171,174.033,430.177,182.084Z" transform="translate(-173.441 -167.5)" fill="#6c63ff"/>
      <path id="Path_530" data-name="Path 530" d="M417.589,167.5H186.03c-6.95.008-12.582,6.533-12.589,14.584V373.889c.007,8.051,5.639,14.576,12.589,14.584H417.589c6.95-.008,12.582-6.533,12.589-14.584V182.084C430.171,174.033,424.538,167.508,417.589,167.5Zm11.826,206.389c-.008,7.562-5.3,13.691-11.826,13.7H186.03c-6.528-.01-11.818-6.138-11.826-13.7V182.084c.008-7.563,5.3-13.691,11.826-13.7H417.589c6.528.01,11.818,6.138,11.826,13.7Z" transform="translate(-173.441 -167.5)" fill="#3f3d56"/>
      <ellipse id="Ellipse_7" data-name="Ellipse 7" cx="7.63" cy="8.839" rx="7.63" ry="8.839" transform="translate(44.252 15.247)" fill="#fff"/>
      <ellipse id="Ellipse_8" data-name="Ellipse 8" cx="7.63" cy="8.839" rx="7.63" ry="8.839" transform="translate(197.226 15.247)" fill="#fff"/>
      <path id="Path_531" data-name="Path 531" d="M281.878,392.4H236.491c-4-.005-7.248-3.764-7.252-8.4V359.149c0-4.638,3.249-8.4,7.252-8.4h45.387c4,.005,7.248,3.764,7.252,8.4V384C289.126,388.639,285.882,392.4,281.878,392.4Z" transform="translate(-207.953 -269.761)" fill="#6c63ff"/>
      <path id="Path_532" data-name="Path 532" d="M484.276,392.4H438.889c-4-.005-7.248-3.764-7.253-8.4V359.149c0-4.638,3.249-8.4,7.253-8.4h45.387c4,.005,7.248,3.764,7.253,8.4V384c0,4.638-3.249,8.4-7.253,8.4Z" transform="translate(-333.14 -269.761)" fill="#6c63ff"/>
      <path id="Path_533" data-name="Path 533" d="M483.92,537.05H438.533c-4.125-.005-7.468-3.878-7.472-8.657V503.542c0-4.779,3.347-8.651,7.472-8.657H483.92c4.125.005,7.468,3.878,7.472,8.657v24.852c0,4.779-3.348,8.651-7.472,8.656Z" transform="translate(-332.784 -350.198)" fill="#f2f2f2"/>
      <path id="Path_534" data-name="Path 534" d="M281.132,537.05H235.744c-4.125-.005-7.468-3.878-7.472-8.656V503.542c0-4.779,3.347-8.652,7.472-8.657h45.387c4.125.005,7.468,3.878,7.472,8.657v24.852C288.6,533.172,285.256,537.045,281.132,537.05Z" transform="translate(-207.355 -350.198)" fill="#f2f2f2"/>
      <path id="Path_535" data-name="Path 535" d="M686.319,537.05H640.932c-4.125-.005-7.468-3.878-7.472-8.657V503.542c0-4.779,3.347-8.651,7.472-8.657h45.387c4.125.005,7.468,3.878,7.472,8.657v24.852C693.786,533.172,690.444,537.045,686.319,537.05Z" transform="translate(-457.971 -350.198)" fill="#f2f2f2"/>
      <path id="Path_536" data-name="Path 536" d="M686.319,391.872H640.932c-4.125-.005-7.468-3.878-7.472-8.657V358.363c0-4.779,3.347-8.651,7.472-8.657h45.387c4.125.005,7.468,3.878,7.472,8.657v24.852C693.786,387.994,690.444,391.867,686.319,391.872Z" transform="translate(-457.971 -269.181)" fill="#f2f2f2"/>
      <ellipse id="Ellipse_9" data-name="Ellipse 9" cx="12.307" cy="14.258" rx="12.307" ry="14.258" transform="translate(38.925 87.555)" fill="#fff"/>
      <path id="Path_537" data-name="Path 537" d="M297.767,396.488a1.166,1.166,0,0,1-.768-.3l-.014-.012-2.892-2.565a1.651,1.651,0,0,1-.238-2.087,1.172,1.172,0,0,1,1.8-.276l1.873,1.664,4.427-6.689a1.172,1.172,0,0,1,1.8-.275l-.028.043.028-.043A1.653,1.653,0,0,1,304,388.04l-5.207,7.868a1.232,1.232,0,0,1-1.022.581Z" transform="translate(-247.755 -289.236)" fill="#6c63ff"/>
      <ellipse id="Ellipse_10" data-name="Ellipse 10" cx="12.307" cy="14.258" rx="12.307" ry="14.258" transform="translate(116.355 87.351)" fill="#fff"/>
      <path id="Path_538" data-name="Path 538" d="M500.742,396.025a1.166,1.166,0,0,1-.768-.3l-.014-.012-2.892-2.565a1.651,1.651,0,0,1-.238-2.087,1.172,1.172,0,0,1,1.8-.276l1.873,1.664,4.427-6.689a1.172,1.172,0,0,1,1.8-.276l-.028.043.028-.043a1.653,1.653,0,0,1,.238,2.087l-5.208,7.868A1.232,1.232,0,0,1,500.742,396.025Z" transform="translate(-373.299 -288.978)" fill="#6c63ff"/>
    </g>
    <g id="reading_book" data-name="reading book" transform="translate(237.825 7386.889)">
      <path id="Path_543" data-name="Path 543" d="M955,650.945s-33.169-17.69-21.517-29.957S955,650.945,955,650.945Z" transform="translate(-636.316 -408.032)" fill="#40c676"/>
      <path id="Path_544" data-name="Path 544" d="M984.2,631.039s-15.246-58.033,7.2-55.258S984.2,631.039,984.2,631.039Z" transform="translate(-666.09 -383.997)" fill="#08903e"/>
      <path id="Path_545" data-name="Path 545" d="M963.256,689.289,963.9,699l.01.168q0,2.274.2,4.539c.868,9.9,4.6,14.414,8.964,14.414s7.933-4.513,8.8-14.414q.2-2.262.2-4.539l.005-.135,0-.032.642-9.708Z" transform="translate(-656.266 -447.395)" fill="#9c4604"/>
      <path id="Path_546" data-name="Path 546" d="M983.114,711.255l0,.032-.005.135q0,2.274-.2,4.539H965.141q-.2-2.262-.2-4.539l-.01-.168Z" transform="translate(-657.304 -459.653)" fill="#fff"/>
      <path id="Path_547" data-name="Path 547" d="M442.147,304.979V287.926h2.289v17.053a3.672,3.672,0,0,1,1.851,3.953,3,3,0,0,1-5.991,0A3.672,3.672,0,0,1,442.147,304.979Z" transform="translate(-184.438 -224.286)" fill="#e6e6e6"/>
      <path id="Path_548" data-name="Path 548" d="M344.355,438.016H360V217.926h6.1v220.09H381.74c7.8,0,14.115,7.321,14.115,16.352H330.24c0-9.031,6.319-16.352,14.115-16.352Z" transform="translate(-91.987 -185.222)" fill="#776b6b"/>
      <path id="Path_549" data-name="Path 549" d="M395.874,209.334H330.323l4.008-58.045c.3-4.149,3.29-7.343,6.884-7.363h43.766c3.594.02,6.58,3.214,6.884,7.363Z" transform="translate(-92.038 -143.926)" fill="rgba(224,89,0,0.96)"/>
      <path id="Path_550" data-name="Path 550" d="M554.429,522.352h0a4.231,4.231,0,0,1,3.544.967,5.655,5.655,0,0,1,1.895,3.6l1.846,14.031-6.279,1.929-4.6-13.073a6.245,6.245,0,0,1,.25-4.73A4.8,4.8,0,0,1,554.429,522.352Z" transform="translate(-341.865 -355.066)" fill="#a0616a"/>
      <path id="Path_551" data-name="Path 551" d="M456.05,559.148c-3.485,16.044-1.985,30.718,10.991,42.24,15.564-4.97,25.916-16.963,32.232-34.391a9.975,9.975,0,0,0-.038-6.838,8.1,8.1,0,0,0-4.293-4.693h0a6.854,6.854,0,0,0-8.262,2.467l-15.271,20.42-7.164-20.59Z" transform="translate(-243.369 -373.288)" fill="#ff5a5a"/>
      <path id="Path_552" data-name="Path 552" d="M717.775,725.914c14.211-.875,23.04-6.528,25.178-18.12l-2.289-4.861-26.206,13.83a4.354,4.354,0,0,0-2.143,4.026,4.24,4.24,0,0,0,2.4,3.826Z" transform="translate(-584.838 -455.881)" fill="#a0a0a0"/>
      <path id="Path_553" data-name="Path 553" d="M667.326,721.566a188.232,188.232,0,0,1,21.214.349c2.456.195,4.591-1.937,4.787-4.78l.4-5.85,5.722-10.607-4.959-5.745c-8.334,9.616-17.474,17.694-28.33,22.495a2.469,2.469,0,0,0-.755,2.573A2,2,0,0,0,667.326,721.566Z" transform="translate(-523.409 -451.417)" fill="#a0a0a0"/>
      <path id="Path_554" data-name="Path 554" d="M502.568,632.177c9.429,19.546,18.7,32.722,30.9,39.775,15.007,5.738,25.975-1.864,34.524-17.457l-24.8-19-3.624,4.2-32.845-28.956a3.8,3.8,0,0,0-5.9.152l-28.015,39.852,3.433,6.629Z" transform="translate(-318.512 -403.687)" fill="#2f2e41"/>
      <path id="Path_555" data-name="Path 555" d="M481.036,531.617l12.97-22.981-3.052-6.629-17.167,20.772Z" transform="translate(-305.374 -280.146)" fill="#2f2e41"/>
      <ellipse id="Ellipse_11" data-name="Ellipse 11" cx="12.97" cy="15.026" rx="12.97" ry="15.026" transform="translate(237.462 148.056)" fill="#a0616a"/>
      <path id="Path_556" data-name="Path 556" d="M441.312,551.937l14.5-5.745a23.534,23.534,0,0,1-2.67-13.258H441.312A83.434,83.434,0,0,1,441.312,551.937Z" transform="translate(-194.312 -361.012)" fill="#a0616a"/>
      <path id="Path_557" data-name="Path 557" d="M419.16,604.989c2.173,1.034,2.332,4.385,4.387,5.524,9.934,5.506,20.443,9.974,27.657,17.9,16.859-13.263,32.485-54.455,12.207-72.479-6.922,4.692-13.1,8.05-12.97,0Z" transform="translate(-203.061 -373.848)" fill="#ff5a5a"/>
      <path id="Path_558" data-name="Path 558" d="M427.143,603.878l7.057-2.873,13.924,12.6,6.242-26.032c.433-1.806,1.134-.89,2.142.364a6.741,6.741,0,0,1,7.946-1.661,8.735,8.735,0,0,1,4.644,7.652c.742,18.883-4.173,34.858-16.4,47.078-15.987-3.966-22.771-16.479-25.559-32.7l.756-.584Q427.481,605.833,427.143,603.878Z" transform="translate(-202.27 -390.414)" opacity="0.2"/>
      <path id="Path_559" data-name="Path 559" d="M441.085,467.674c-4.278,1.132-9.148,2.737-9.421,4.228-4.4,1.285-7.723,4.362-8.4,9.054a3.129,3.129,0,0,0,.56,2.287,2.3,2.3,0,0,0,1.873.971c2.393-.036,5.986-.3,8.359-1.449,6.892,5.145,8.049,18.526,5.039,27.634l4.736-.5,4.9-16.618,1.252,15.965,10.808-1.656L459.4,487.229a33.549,33.549,0,0,0-4.112-13.45,11.425,11.425,0,0,0-.774-1.161C451.163,468.234,446,466.334,441.085,467.674Z" transform="translate(-192.397 -324.359)" fill="#2f2e41"/>
      <path id="Path_560" data-name="Path 560" d="M409.962,406.748l-11.871,16.168-17.806-24.345,12.031-16.912Z" transform="translate(-185.659 -212.986)" fill="#3f3d56"/>
      <path id="Path_561" data-name="Path 561" d="M574.174,546.189l14.117-13.381c-.8-2.23-4.652-1.487-4.652-1.487L572.589,544.3a7.021,7.021,0,0,0-.981,1.517h0Z" transform="translate(-376.501 -360.047)" fill="#f2f2f2"/>
      <path id="Path_562" data-name="Path 562" d="M524.054,544.706l16.042-14.5L557.9,561.432l-16.763,13.1a3.35,3.35,0,0,1-3.208-.558l-16.362-28.991Z" transform="translate(-327.022 -359.493)" fill="#3f3d56"/>
      <path id="Path_566" data-name="Path 566" d="M0,0,.287.02l.95,13.326-.287-.02Z" transform="translate(200.957 184.035) rotate(-125.701)" fill="#6c63ff"/>
      <path id="Path_567" data-name="Path 567" d="M0,0,27.119,1.781l.019.273L.019.273Z" transform="matrix(-0.552, -0.834, 0.834, -0.552, 213.926, 210.757)" fill="#6c63ff"/>
      <path id="Path_568" data-name="Path 568" d="M0,0,.287.02,1.311,14.313l-.287-.02Z" transform="translate(215.72 211.54) rotate(-126.344)" fill="#6c63ff"/>
      <path id="Path_569" data-name="Path 569" d="M0,0,27.039,1.816l.019.273L.019.273Z" transform="matrix(-0.571, -0.821, 0.821, -0.571, 226.762, 199.052)" fill="#6c63ff"/>
      <path id="Path_570" data-name="Path 570" d="M0,0,.174.013,1.535,18.49l-.174-.013Z" transform="translate(196.123 184.725) rotate(-132.545)" fill="#b3b3b3"/>
      <path id="Path_571" data-name="Path 571" d="M0,0,.175.013,1.566,18.938l-.175-.013Z" transform="translate(196.605 184.915) rotate(-131.439)" fill="#b3b3b3"/>
      <path id="Path_572" data-name="Path 572" d="M0,0,.176.013l1.4,19.094L1.4,19.094Z" transform="matrix(-0.64, -0.768, 0.768, -0.64, 196.928, 184.919)" fill="#b3b3b3"/>
      <path id="Path_563" data-name="Path 563" d="M522.337,591.858h0a4.214,4.214,0,0,1,3.56-.886,4.733,4.733,0,0,1,3.045,2.314l6.859,11.76-4.959,4.861-8.994-9.526a5.939,5.939,0,0,1-1.524-4.4A5.709,5.709,0,0,1,522.337,591.858Z" transform="translate(-304.442 -393.349)" fill="#a0616a"/>
      <path id="Path_564" data-name="Path 564" d="M427.143,602.3c2.788,16.225,9.572,28.739,25.559,32.7,12.223-12.22,17.138-28.195,16.4-47.078a9.289,9.289,0,0,0-2.565-6.159,6.869,6.869,0,0,0-5.615-2.109h0a7.9,7.9,0,0,0-6.552,6.332l-6.242,26.032-14.091-15.045Z" transform="translate(-202.27 -387.067)" fill="#ff5a5a"/>
      <path id="Path_565" data-name="Path 565" d="M336.678,610.93H0v-.964H336.829Z" transform="translate(0 -339.52)" fill="#3f3d56"/>
    </g>
  </g>
</svg>
