<svg xmlns="http://www.w3.org/2000/svg" xmlns:xlink="http://www.w3.org/1999/xlink" width="388" height="335" viewBox="0 0 388 335">
  <defs>
    <clipPath id="clip-path">
      <rect id="Rectangle_13" data-name="Rectangle 13" width="388" height="335" transform="translate(1120 167)"/>
    </clipPath>
  </defs>
  <g id="home_delivery" data-name="home delivery" transform="translate(-1120 -167)" clip-path="url(#clip-path)">
    <path id="Path_192" data-name="Path 192" d="M1128.626,1081.079c31.1-20.978,139.522-31.281,242.007-23s160.423,32.04,129.321,53.018-139.522,31.281-242.01,23S1097.521,1102.06,1128.626,1081.079Z" transform="translate(-0.159 -634.916)" fill="#f2f2f2" fill-rule="evenodd"/>
    <path id="Path_193" data-name="Path 193" d="M2079.259,1276.1c3.838-2.546,17.228-4.255,29.881-3.81s19.809,2.877,15.968,5.427-17.228,4.255-29.884,3.813S2075.417,1278.656,2079.259,1276.1Z" transform="translate(-684.955 -790.035)" fill="#d9d9d9" fill-rule="evenodd"/>
    <path id="Path_194" data-name="Path 194" d="M1562.22,178.015v286.3a10.622,10.622,0,0,0,10.426,10.8h143.112a10.624,10.624,0,0,0,10.426-10.8v-286.3a10.623,10.623,0,0,0-10.426-10.8H1572.646A10.621,10.621,0,0,0,1562.22,178.015Z" transform="translate(-316.107 -0.157)" fill="#595959" fill-rule="evenodd"/>
    <path id="Path_195" data-name="Path 195" d="M1582.22,196.113V476.039a7.769,7.769,0,0,0,7.634,7.891h137.32a7.768,7.768,0,0,0,7.631-7.891V196.113a7.769,7.769,0,0,0-7.631-7.893h-137.32A7.767,7.767,0,0,0,1582.22,196.113Z" transform="translate(-330.404 -15.168)" fill="#fff" fill-rule="evenodd"/>
    <path id="Path_196" data-name="Path 196" d="M1621.812,441.253h12.34a9.438,9.438,0,0,0,17.921,0h12.36a21.46,21.46,0,0,1-42.62,0Zm83.37,0h12.345a9.411,9.411,0,0,0,17.279,1.426V458.45a20.936,20.936,0,0,1-8.319,1.729A21.837,21.837,0,0,1,1705.182,441.253Zm-88.512-3.572V424.134a17.616,17.616,0,0,1,.411-3.751H1582.22V414.42h37.4a16.617,16.617,0,0,1,3.89-4.062H1605.06a3.406,3.406,0,0,1-3.354-3.473V380.3a3.405,3.405,0,0,1,3.354-3.47h36.147a3.407,3.407,0,0,1,3.357,3.47v19.717h6.1a7.4,7.4,0,0,1-2.05-5.033c-.1-7.609.616-15.961,4.851-23.859,3.528-6.587,9.417-12.42,18.038-17.148a15.488,15.488,0,0,1-2.669-8.67,14.583,14.583,0,1,1,29.148,0,15.043,15.043,0,0,1-10.3,14.411c2.31,6.372,4.511,8.3,6.26,9.18,2.059,1.046,5.3.926,10.349.976,7.383.071,8.875,9.094,4.614,12.9,2.615,5.48,5.672,12.735,8.222,19.687a7.113,7.113,0,0,1,5.729-5.457v14.326a6.849,6.849,0,0,1-3.166-1.4,67.491,67.491,0,0,1,2.376,9.3,21.159,21.159,0,0,1,4.358-.479,20.933,20.933,0,0,1,8.379,1.757v17.168Zm65.158-30.95c-1.169-1.985-2.549-3.334-6.294-4.419-.271-.076-.585-.145-.881-.216,1.526,1.318,2.416,3.461,2.416,6.951v20.088h7.3C1684.2,419.189,1684.1,410.582,1681.828,406.73Zm21.68-7.83-.125-14.439c-3.993.043-9.585.586-15.622-2.473-3.408-1.726-8.8-5.09-13.093-16.366-1.355,2.762-.2,6.1,1.126,9.318-3.265,2.991-5.635,7.957-4.069,12.131a35.435,35.435,0,0,1,7.589,1.2,24.614,24.614,0,0,1,14.53,10.87,31.178,31.178,0,0,1,3.625,9.592C1700.519,405.329,1703.536,402.405,1703.507,398.9Zm-121.287,3.521v-5.964h15.554v5.964Zm0-16.76v-5.97h15.554v5.97Zm1.743-19.033a2.933,2.933,0,0,1,2.88-2.983h53.32a2.987,2.987,0,0,1,0,5.97h-53.32A2.932,2.932,0,0,1,1583.963,366.627Zm15.012-13.032a2.938,2.938,0,0,1,2.886-2.984h53.32a2.988,2.988,0,0,1,0,5.972h-53.32A2.939,2.939,0,0,1,1598.974,353.6Z" transform="translate(-330.404 -116.673)" fill="#2a9d8f" fill-rule="evenodd"/>
    <path id="Path_197" data-name="Path 197" d="M1478.289,699.9l-.069-5.637,8.219-.039v0a2,2,0,0,1,1.634,1.333,3.641,3.641,0,0,1-.477,3.885,1.416,1.416,0,0,1-1.1.418Z" transform="translate(-256.063 -376.867)" fill="#333" fill-rule="evenodd"/>
    <path id="Path_198" data-name="Path 198" d="M1281.163,991.646c8.752-10.5,23.992-9.776,34.016,1.62s11.059,29.174,2.307,39.674c-5.758,3.964-10.575,6.231-17.661,7.412-5.763-.57-11.641-3.627-16.355-9.032C1273.446,1019.922,1272.411,1002.146,1281.163,991.646Z" transform="translate(-110.954 -584.165)" fill="#333" fill-rule="evenodd"/>
    <path id="Path_199" data-name="Path 199" d="M1275.5,991.646c7.862-10.5,21.657-9.776,30.791,1.62s10.172,29.171,2.313,39.672-21.657,9.776-30.794-1.62S1267.638,1002.149,1275.5,991.646Z" transform="translate(-107.379 -584.165)" fill="#191919" fill-rule="evenodd"/>
    <path id="Path_200" data-name="Path 200" d="M1400.722,1121.991c.325-.568.673-1.118,1.007-1.68a41.216,41.216,0,0,0,2.016-3.793,37.016,37.016,0,0,0,1.822-5.022c.211-.707.388-1.429.6-2.136a7.732,7.732,0,0,1,.4-1.141,11.189,11.189,0,0,1-.077,4.532,18.1,18.1,0,0,1-3.234,7.372,11.309,11.309,0,0,1-2.606,2.607c-.14.091-.285.171-.431.257A5.807,5.807,0,0,1,1400.722,1121.991Z" transform="translate(-200.307 -672.802)" fill="#666" fill-rule="evenodd"/>
    <path id="Path_201" data-name="Path 201" d="M1288.226,1008.346c6.066-8.606,16.828-8.081,24.029,1.178s8.119,23.753,2.056,32.362-16.828,8.079-24.026-1.178S1282.163,1016.953,1288.226,1008.346Z" transform="translate(-117.387 -597.032)" fill="#d9d9d9" fill-rule="evenodd"/>
    <path id="Path_202" data-name="Path 202" d="M1308.137,1040.881c4.112-5.145,11.068-4.831,15.522.7s4.725,14.2.61,19.344-11.068,4.828-15.52-.7S1304.025,1046.026,1308.137,1040.881Z" transform="translate(-132.401 -622.05)" fill="#595959" fill-rule="evenodd"/>
    <path id="Path_203" data-name="Path 203" d="M1285.9,1111.061a20.078,20.078,0,0,1-4.052-7.417,13.16,13.16,0,0,1-.619-3.887c.006-.18.026-.357.04-.536a5.916,5.916,0,0,1,.519,1.041c.22.513.425,1.035.639,1.551.3.722.6,1.434.915,2.15.342.8.747,1.586,1.146,2.353a36.663,36.663,0,0,0,1.888,3.177c.354.542.73,1.061,1.1,1.594.436.63.912,1.24,1.349,1.874a8.51,8.51,0,0,1,.667,1.061A11.529,11.529,0,0,1,1285.9,1111.061Z" transform="translate(-115.245 -666.369)" fill="#666" fill-rule="evenodd"/>
    <path id="Path_204" data-name="Path 204" d="M1261.22,976.352c3,.733,5.866-.6,8.6-3.824,2.946-4.1,7.358-5.795,13.347-4.931l3.947-7.65-3.054-8.46-4.107-.268C1269.459,954.585,1261.443,960.87,1261.22,976.352Z" transform="translate(-100.947 -560.575)" fill="#a6a6a6" fill-rule="evenodd"/>
    <path id="Path_205" data-name="Path 205" d="M1356.831,853.379l-38.953-9.967-12.984-40.306-1.674-21.453,1.939-31.008c.479-7.324,4.606-11,11.758-11.644l22.985-.762c6.556-.322,8.122,3.665,6.873,10.072l-2.293,23.819.491,13.034,7.032,22.771,6.548.424Z" transform="translate(-130.969 -408.319)" fill="#bfbfbf" fill-rule="evenodd"/>
    <path id="Path_206" data-name="Path 206" d="M1405.23,795.3l.647-50.082h2.182l-1.155,49.4Z" transform="translate(-203.888 -413.323)" fill="#7f7f7f" fill-rule="evenodd"/>
    <path id="Path_207" data-name="Path 207" d="M1383.22,1066.22l37.216,5.952,4.589,13.1-33.945-9.354C1387.2,1073.88,1384.224,1070.98,1383.22,1066.22Z" transform="translate(-188.155 -642.78)" fill="#d9d9d9" fill-rule="evenodd"/>
    <path id="Path_208" data-name="Path 208" d="M1420.313,1051.442l-37.094-5.875,30.486-8.347,14.827,2.684Z" transform="translate(-188.155 -622.05)" fill="#d9d9d9" fill-rule="evenodd"/>
    <path id="Path_209" data-name="Path 209" d="M1356.985,852.6l-39.064-9.958L1304.9,802.377l-1.68-21.433,1.974-31.315c.482-7.316,4.623-10.987,11.8-11.631l23.054-.76c6.576-.323,8.145,3.66,6.89,10.063l-2.33,24.129.488,13.022,7.055,22.749,7.569,23.319,34.407,24.979Zm-2.544-3.781,29.6,5.892-27.1-22.013-6.8-23.273-7.708-24.859-.514-13.578,2.364-24.451.023-.131c.6-3.045.342-4.753-.163-5.592-.345-.575-1.215-1.373-4.049-1.233l-22.971.76-2.085.3c-4.628.969-6.938,3.713-7.278,8.824l-1.956,31.112,1.637,20.891,12.462,38.541Z" transform="translate(-130.969 -407.604)" fill="#595959" fill-rule="evenodd"/>
    <path id="Path_210" data-name="Path 210" d="M1580.34,1039.832c12.112-13.592,31.721-12.653,43.767,2.1s11.995,37.758-.12,51.355c-7.734,5.128-14.131,8.062-23.365,9.593-7.392-.739-14.738-4.694-20.4-11.7C1568.174,1076.435,1568.225,1053.429,1580.34,1039.832Z" transform="translate(-322.541 -617.047)" fill="#333" fill-rule="evenodd"/>
    <path id="Path_211" data-name="Path 211" d="M1572.492,1039.832c10.985-13.592,28.772-12.653,39.7,2.1s10.88,37.758-.105,51.355-28.772,12.654-39.7-2.1S1561.507,1053.429,1572.492,1039.832Z" transform="translate(-317.539 -617.047)" fill="#191919" fill-rule="evenodd"/>
    <path id="Path_212" data-name="Path 212" d="M1725.836,1208.226c.422-.656.867-1.295,1.292-1.948.545-.827,1.081-1.646,1.611-2.484.585-.927,1.121-1.9,1.64-2.866a42.885,42.885,0,0,0,1.951-4.221c.305-.756.579-1.517.861-2.282.336-.907.619-1.842.961-2.749a10.865,10.865,0,0,1,.613-1.457,14.641,14.641,0,0,1-.462,5.915,24.521,24.521,0,0,1-4.839,9.534,15.86,15.86,0,0,1-3.648,3.357c-.194.117-.4.217-.6.325A6.364,6.364,0,0,1,1725.836,1208.226Z" transform="translate(-432.623 -731.417)" fill="#666" fill-rule="evenodd"/>
    <path id="Path_213" data-name="Path 213" d="M1588.558,1062.112c8.513-11.085,22.4-10.409,31,1.514s8.664,30.594.154,41.682-22.4,10.406-31-1.514S1580.045,1073.2,1588.558,1062.112Z" transform="translate(-330.402 -634.203)" fill="#d9d9d9" fill-rule="evenodd"/>
    <path id="Path_214" data-name="Path 214" d="M1614.708,1102.974c5.689-6.679,14.6-6.271,19.894.912s4.965,18.437-.724,25.119-14.6,6.271-19.894-.915S1609.019,1109.653,1614.708,1102.974Z" transform="translate(-350.418 -665.654)" fill="#595959" fill-rule="evenodd"/>
    <path id="Path_215" data-name="Path 215" d="M1475.676,977.563l71,19.03,10.472-4.323,6.7,1.511L1596.308,978c-14.653-25.19-16.335-67.25-79.791-65.737l-39.372.216.625,11.46C1466.1,933.948,1467.346,953.218,1475.676,977.563Z" transform="translate(-249.629 -532.698)" fill="#bfbfbf" fill-rule="evenodd"/>
    <path id="Path_216" data-name="Path 216" d="M1527.141,918.964c.143.023.288.048.428.073V912.31l-30.349.167,39.295-.217c63.33-1.516,65.01,40.653,79.634,65.908l-32.4,15.825C1576.238,969.516,1572.211,933.228,1527.141,918.964Z" transform="translate(-269.644 -532.698)" fill="#bfbfbf" fill-rule="evenodd"/>
    <path id="Path_217" data-name="Path 217" d="M1495.008,864.221l-12.787,1.655,50.927,20.817,24.942-21.364Z" transform="translate(-258.922 -498.387)" fill="#595959" fill-rule="evenodd"/>
    <path id="Path_218" data-name="Path 218" d="M1792.473,1010.249c.357-1.246,2.84-2.672,3.7-2.963,1.124-.374.747.736,2.093,2.093,2.373,2.4,4.289,7.862,3.465,10.734-1.831,1.571-4.075,2.076-6.451-.319S1791.646,1013.121,1792.473,1010.249Z" transform="translate(-480.515 -600.601)" fill="#595959" fill-rule="evenodd"/>
    <path id="Path_219" data-name="Path 219" d="M1583.918,993.77l-6.7-1.514-.616.257-.006,0,.006,0c-10.152-31.5-25.267-76.349-78-68.764l-.961.309-.037.012.24-.212-.625-11.471,30.409-.167v6.717c-.143-.025-.285-.05-.431-.073C1572.357,933.1,1576.389,969.336,1583.918,993.77Z" transform="translate(-269.644 -532.698)" fill="#7f7f7f" fill-rule="evenodd"/>
    <path id="Path_220" data-name="Path 220" d="M1663.424,870.8l-2.2,18.73,21.012-4.885,3.762-16.426Z" transform="translate(-386.875 -501.246)" fill="#191919" fill-rule="evenodd"/>
    <path id="Path_221" data-name="Path 221" d="M1482.22,885.112l51.059,5.636,2.224-18.518-53.283-2.012Z" transform="translate(-258.922 -502.674)" fill="#404040" fill-rule="evenodd"/>
    <path id="Path_222" data-name="Path 222" d="M1631.419,1012.908c-.873-1.338-1.72-2.7-2.624-4.01a81.16,81.16,0,0,0-6.508-8.333,62.508,62.508,0,0,0-6.106-5.909c-1.132-.958-2.293-1.848-3.459-2.758-1.366-1.073-2.835-2.05-4.252-3.048-.759-.531-1.529-1.047-2.25-1.632a32.36,32.36,0,0,1,9.271,4.76,46.477,46.477,0,0,1,4.626,3.7c5.612,5.239,10.526,11.889,12.785,19.415A25.425,25.425,0,0,1,1631.419,1012.908Z" transform="translate(-347.559 -586.308)" fill="#d9d9d9" fill-rule="evenodd"/>
    <path id="Path_223" data-name="Path 223" d="M1798.475,1008.715c.827-2.943,3.436-3.339,5.818-.887s3.65,6.83,2.823,9.77-3.434,3.342-5.818.89S1797.648,1011.658,1798.475,1008.715Z" transform="translate(-484.806 -599.891)" fill="#7f7f7f" fill-rule="evenodd"/>
    <path id="Path_224" data-name="Path 224" d="M1582.256,1193.415a24.469,24.469,0,0,1-4.526-9.551,16.84,16.84,0,0,1-.479-4.965c.02-.228.063-.453.094-.679a6.549,6.549,0,0,1,.5,1.166c.259.733.5,1.469.753,2.2.285.824.55,1.657.864,2.47.433,1.129.87,2.224,1.363,3.325a43.015,43.015,0,0,0,2.116,4.072c.4.69.83,1.36,1.252,2.039.5.807,1.052,1.586,1.554,2.4a10.9,10.9,0,0,1,.767,1.355A13.652,13.652,0,0,1,1582.256,1193.415Z" transform="translate(-326.826 -722.839)" fill="#666" fill-rule="evenodd"/>
    <path id="Path_225" data-name="Path 225" d="M1407.24,739.746l.034-2.438,2.444-.078-.063,2.441Z" transform="translate(-205.325 -407.611)" fill="#595959" fill-rule="evenodd"/>
    <path id="Path_226" data-name="Path 226" d="M1312.022,697.044l-.171-5.852c-.088-2.186-.274-4.366-2.646-6.408l-6.839-1.72a36.809,36.809,0,0,0-12.214.5c-1.272-1.7-1.357-3.585.459-5.777,6.725-1.073,9.671-2.913,14.961-7.063,5.649-5.834,11.772-7.928,18.919-1.828a35.9,35.9,0,0,0,18.58,4.712c1.908.623,2.076,4.166.9,5.668a37.142,37.142,0,0,0-12.18,1.439l-6.665,2.8a10.385,10.385,0,0,0-2.139,6.788l-.151,6.739h-10.817Z" transform="translate(-120.961 -356.138)" fill="#d9d9d9" fill-rule="evenodd"/>
    <path id="Path_227" data-name="Path 227" d="M1370.709,826.017l-1.489-49.8h10.842l-1.092,49.12Z" transform="translate(-178.147 -435.482)" fill="#d9d9d9" fill-rule="evenodd"/>
    <path id="Path_228" data-name="Path 228" d="M1265.3,715.76l-.077-5.827,8.917-.714v0a1.96,1.96,0,0,1,1.774,1.248,3.711,3.711,0,0,1-.516,4.056,1.689,1.689,0,0,1-1.186.522Z" transform="translate(-103.806 -387.587)" fill="#333" fill-rule="evenodd"/>
    <path id="Path_229" data-name="Path 229" d="M1259.126,711.779c.95-.969,2.259-.626,2.92.767a4.056,4.056,0,0,1-.525,4.278c-.95.968-2.259.624-2.917-.767A4.049,4.049,0,0,1,1259.126,711.779Z" transform="translate(-98.807 -389.025)" fill="#4c4c4c" fill-rule="evenodd"/>
    <path id="Path_230" data-name="Path 230" d="M1682.416,985.169c-.873-1.349-1.719-2.721-2.621-4.05a81.866,81.866,0,0,0-6.508-8.416,63.039,63.039,0,0,0-6.106-5.972c-1.135-.969-2.293-1.865-3.459-2.786-1.366-1.083-2.835-2.069-4.255-3.076-.756-.54-1.526-1.059-2.247-1.649a32.289,32.289,0,0,1,9.274,4.807,46.866,46.866,0,0,1,4.625,3.743c5.615,5.292,10.523,12.008,12.785,19.614A24.721,24.721,0,0,1,1682.416,985.169Z" transform="translate(-384.015 -566.295)" fill="#d9d9d9" fill-rule="evenodd"/>
    <path id="Path_231" data-name="Path 231" d="M1311.16,904.543l-.208-.63h1.386l-5.444-16.565-1.674-20.916.593-9.211h1.751l-.63,9.839,1.671,20.916,5.444,16.567Z" transform="translate(-132.399 -493.382)" fill="#595959" fill-rule="evenodd"/>
    <path id="Path_232" data-name="Path 232" d="M1768.22,778.22v53.317l46.661-10.415-.516-42.141Z" transform="translate(-463.36 -436.912)" fill="#666" fill-rule="evenodd"/>
    <path id="Path_233" data-name="Path 233" d="M1705.33,760.22l-25.11,27.941,25.11,30.481,46.664-10.421-.516-42.164Z" transform="translate(-400.456 -424.045)" fill="#404040" fill-rule="evenodd"/>
    <path id="Path_234" data-name="Path 234" d="M1649.515,778.22v53.317l-47.294-4.14V783.389Z" transform="translate(-344.7 -436.912)" fill="#595959" fill-rule="evenodd"/>
    <path id="Path_235" data-name="Path 235" d="M1602.22,786V778.39l47.266-5.17,46.068.761.1,8.065-46.165,2.862Z" transform="translate(-344.7 -433.338)" fill="#333" fill-rule="evenodd"/>
    <path id="Path_236" data-name="Path 236" d="M1768.22,757.337v12.474l48.98-3.014.046-10.577Z" transform="translate(-463.36 -421.185)" fill="#a6a6a6" fill-rule="evenodd"/>
    <path id="Path_237" data-name="Path 237" d="M1640.911,760.219v12.474l-50.691,1.177V762.875Z" transform="translate(-336.122 -424.044)" fill="#7f7f7f" fill-rule="evenodd"/>
    <path id="Path_238" data-name="Path 238" d="M1608.22,237.472v1.954a1.252,1.252,0,0,0,1.249,1.255h2.227a1.252,1.252,0,0,0,1.249-1.255v-1.954a1.252,1.252,0,0,0-1.249-1.255h-2.227A1.254,1.254,0,0,0,1608.22,237.472Z" transform="translate(-348.989 -49.478)" fill="#7f7f7f" fill-rule="evenodd"/>
    <path id="Path_239" data-name="Path 239" d="M1630.21,228.5v4.555a1.23,1.23,0,0,0,1.175,1.279h2.1a1.232,1.232,0,0,0,1.175-1.279V228.5a1.232,1.232,0,0,0-1.175-1.279h-2.1A1.23,1.23,0,0,0,1630.21,228.5Z" transform="translate(-364.708 -43.047)" fill="#7f7f7f" fill-rule="evenodd"/>
    <path id="Path_240" data-name="Path 240" d="M1650.22,219.489v7.067a1.26,1.26,0,0,0,1.249,1.27h2.227a1.259,1.259,0,0,0,1.246-1.27v-7.067a1.258,1.258,0,0,0-1.246-1.27h-2.227A1.26,1.26,0,0,0,1650.22,219.489Z" transform="translate(-379.011 -36.612)" fill="#7f7f7f" fill-rule="evenodd"/>
    <path id="Path_241" data-name="Path 241" d="M2060.987,218.223h-7.54a1.263,1.263,0,0,0-1.226,1.3v3.612a1.264,1.264,0,0,0,1.226,1.3h7.54a1.264,1.264,0,0,0,1.226-1.3v-3.612A1.26,1.26,0,0,0,2060.987,218.223Z" transform="translate(-666.369 -36.615)" fill="#7f7f7f" fill-rule="evenodd"/>
    <path id="Path_242" data-name="Path 242" d="M2079.849,224.226h-3.069a.561.561,0,0,0-.551.57v1.592a.561.561,0,0,0,.551.57h3.069a.561.561,0,0,0,.55-.57V224.8A.56.56,0,0,0,2079.849,224.226Z" transform="translate(-683.532 -40.906)" fill="#7f7f7f" fill-rule="evenodd"/>
    <path id="Path_243" data-name="Path 243" d="M1830.048,229.084a6.16,6.16,0,0,1,8.829,0,6.454,6.454,0,0,1,0,9,6.161,6.161,0,0,1-8.829,0A6.46,6.46,0,0,1,1830.048,229.084Z" transform="translate(-506.252 -43.047)" fill="#7f7f7f" fill-rule="evenodd"/>
    <path id="Path_244" data-name="Path 244" d="M1840.131,239.187a3.006,3.006,0,0,1,4.412,0,3.421,3.421,0,0,1,0,4.654,3.006,3.006,0,0,1-4.412,0A3.421,3.421,0,0,1,1840.131,239.187Z" transform="translate(-514.111 -50.911)" fill="#595959" fill-rule="evenodd"/>
    <path id="Path_245" data-name="Path 245" d="M1849.582,241.683a1.136,1.136,0,0,1,1.808,0,1.754,1.754,0,0,1,0,2.166,1.136,1.136,0,0,1-1.808,0A1.754,1.754,0,0,1,1849.582,241.683Z" transform="translate(-521.252 -53.065)" fill="#bfbfbf" fill-rule="evenodd"/>
    <path id="Path_246" data-name="Path 246" d="M2028.44,895.071l-30.406-61.61c-15.129-28.012-7.623-64.87,16.757-82.264s56.451-8.758,71.586,19.255a67.345,67.345,0,0,1-.745,64.352l-37.65,59.455C2044.8,899.269,2031.623,900.082,2028.44,895.071Zm35.394-68c11.932-13.718,11.932-35.982,0-49.693s-31.316-13.713-43.248,0-11.941,35.975,0,49.693S2051.893,840.787,2063.834,827.073Z" transform="translate(-622.05 -411.179)" fill="#ce401c" fill-rule="evenodd"/>
    <path id="Path_247" data-name="Path 247" d="M2006.434,894.156l-38.4-60.758c-15.129-27.993-7.623-64.826,16.757-82.207s56.449-8.753,71.586,19.241a67.265,67.265,0,0,1-.747,64.309l-37.65,59.412C2014.8,899.161,2009.616,899.161,2006.434,894.156Zm27.4-67.143c11.932-13.708,11.932-35.957,0-49.659s-31.313-13.7-43.245,0-11.94,35.951,0,49.659S2021.891,840.719,2033.831,827.013Z" transform="translate(-600.605 -411.179)" fill="#e76f51" fill-rule="evenodd"/>
  </g>
</svg>
