<svg xmlns="http://www.w3.org/2000/svg" xmlns:xlink="http://www.w3.org/1999/xlink" width="622" height="1744" viewBox="0 0 622 1744">
  <defs>
    <clipPath id="clip-path">
      <rect id="Rectangle_14" data-name="Rectangle 14" width="1744" height="622" transform="translate(211 328)"/>
    </clipPath>
    <clipPath id="clip-path-2">
      <rect id="Rectangle_26" data-name="Rectangle 26" width="184" height="154" transform="translate(711 563)" fill="#272727"/>
    </clipPath>
    <clipPath id="clip-path-3">
      <rect id="Rectangle_29" data-name="Rectangle 29" width="160" height="175" transform="translate(32 594)" fill="#232323"/>
    </clipPath>
    <clipPath id="clip-path-4">
      <rect id="Rectangle_35" data-name="Rectangle 35" width="216" height="218" transform="translate(1343.773 116.894)"/>
    </clipPath>
    <clipPath id="clip-path-5">
      <rect id="Rectangle_36" data-name="Rectangle 36" width="100" height="86" transform="translate(1492 66)"/>
    </clipPath>
  </defs>
  <g id="Group_19" data-name="Group 19" transform="translate(-2589 -3465)">
    <g id="Process" transform="translate(3539 3254) rotate(90)" clip-path="url(#clip-path)">
      <path id="Path_248" data-name="Path 248" d="M702.963,680.292c0,98.363-79.643,178.1-177.888,178.1s-177.888-79.74-177.888-178.1,79.643-178.1,177.888-178.1S702.963,581.928,702.963,680.292Z" transform="translate(-25.014 -31.994)" fill="#f1f2f2" fill-rule="evenodd"/>
      <path id="Path_249" data-name="Path 249" d="M1408.962,659.88c0,98.145-79.641,177.707-177.886,177.707S1053.19,758.025,1053.19,659.88s79.641-177.708,177.886-177.708S1408.962,561.734,1408.962,659.88Z" transform="translate(-154.687 -28.317)" fill="#f1f2f2" fill-rule="evenodd"/>
      <path id="Path_250" data-name="Path 250" d="M961.685,576.2q2.939-6.437,6.246-12.665" transform="translate(-137.88 -43.261)" fill="none" stroke="#a7a9ac" stroke-linecap="round" stroke-miterlimit="8" stroke-width="1.416" fill-rule="evenodd"/>
      <path id="Path_251" data-name="Path 251" d="M987.623,501.832c60.634-93.375,175.181-145.356,289.737-126.313a291.977,291.977,0,0,1,201.763,139.439" transform="translate(-142.644 -8.011)" fill="none" stroke="#a7a9ac" stroke-linecap="round" stroke-miterlimit="8" stroke-width="1.416" stroke-dasharray="11.909 14.741" fill-rule="evenodd"/>
      <path id="Path_252" data-name="Path 252" d="M1598.42,563.534q3.135,6.192,5.951,12.548" transform="translate(-254.831 -43.261)" fill="none" stroke="#a7a9ac" stroke-linecap="round" stroke-miterlimit="8" stroke-width="1.416" fill-rule="evenodd"/>
      <path id="Path_253" data-name="Path 253" d="M2129.962,686.292c0,98.363-79.641,178.1-177.886,178.1s-177.886-79.74-177.886-178.1,79.641-178.1,177.886-178.1S2129.962,587.928,2129.962,686.292Z" transform="translate(-287.115 -33.096)" fill="#f1f2f2" fill-rule="evenodd"/>
      <path id="Path_254" data-name="Path 254" d="M1086.533,955.912c-160.555,0-292.551-129.271-296.391-289.157h-.361v-7.2c0-155.47-126.542-281.954-282.085-281.954S225.61,504.086,225.61,659.556,352.152,941.512,507.7,941.512h4.8v14.4h-4.8c-163.489,0-296.489-132.942-296.489-296.355S344.206,363.2,507.7,363.2c160.561,0,292.553,129.291,296.394,289.152h.336v7.2c0,155.47,126.54,281.955,282.083,281.955S1368.6,815.027,1368.6,659.556v-7.2h.335c3.861-159.886,135.829-289.152,296.392-289.152h4.8v14.4h-4.8c-155.543,0-282.082,126.483-282.082,281.954v7.2h-.343C1379.064,826.641,1247.1,955.912,1086.533,955.912Z" transform="translate(-0.038 -6.466)" fill="#a20aff" fill-rule="evenodd"/>
      <path id="Path_255" data-name="Path 255" d="M2082.69,384.685q7.126,1.873,14.106,4.091" transform="translate(-343.778 -10.411)" fill="none" stroke="#a7a9ac" stroke-linecap="round" stroke-miterlimit="8" stroke-width="1.416" fill-rule="evenodd"/>
      <path id="Path_256" data-name="Path 256" d="M2050.829,401.622c102.441,44.47,174.09,146.563,174.09,265.432,0,159.715-129.4,289.2-289.037,289.2-108.343,0-202.776-59.665-252.261-147.936" transform="translate(-270.48 -13.522)" fill="none" stroke="#a7a9ac" stroke-linecap="round" stroke-miterlimit="8" stroke-width="1.416" stroke-dasharray="11.526 14.358" fill-rule="evenodd"/>
      <path id="Path_257" data-name="Path 257" d="M1673.886,881.222q-3.269-6.263-6.2-12.688" transform="translate(-267.554 -99.281)" fill="none" stroke="#a7a9ac" stroke-linecap="round" stroke-miterlimit="8" stroke-width="1.416" fill-rule="evenodd"/>
      <path id="Path_258" data-name="Path 258" d="M1993.23,402.7V329.192l47.673,36.756Z" transform="translate(-327.347 -0.219)" fill="#fb30b3" fill-rule="evenodd"/>
    </g>
    <g id="shake_hands" data-name="shake hands" transform="translate(2086 3112)" clip-path="url(#clip-path-2)">
      <path id="Path_468" data-name="Path 468" d="M821.949,607.509l14.557,4.765a1.147,1.147,0,0,0,.629.174,3.245,3.245,0,0,0,1.66-.593l4.578-3.3,32.046,41.614L870,654.1c-.21-.417-.839-.626-1.031-.834l-55.357-30.015,2.1-3.3a2.678,2.678,0,0,0-.837-3.739,2.551,2.551,0,0,0-1.416-.435,2.339,2.339,0,0,0-2.115,1.27l-5.836,9.322a6.24,6.24,0,0,0-.629,1.235v22.571a8.541,8.541,0,0,1-8.527,8.486,8.681,8.681,0,0,1-8.527-8.486V627.8l5.207-20.294Zm-64.075-8.277,4.158,2.277-34.964,60.255-4.159-2.277Zm9.138,53a6.562,6.562,0,0,1,4.788,2.277,5.755,5.755,0,0,1-1.452,8.278l-18.923,13.251a5.63,5.63,0,0,1-3.355,1.077,6.005,6.005,0,0,1-4.77-2.312,5.9,5.9,0,0,1,1.468-8.086l18.923-13.46A5.318,5.318,0,0,1,767.012,652.235Zm10.414,13.251a5.815,5.815,0,0,1,3.11,10.555L765.981,686.6a5.487,5.487,0,0,1-3.355,1.1,5.991,5.991,0,0,1-4.752-2.33,5.753,5.753,0,0,1,1.45-8.277l13.944-10.154c.611-.209,1.03-.818,1.658-1.027A8.942,8.942,0,0,1,777.426,665.487Zm10.555,13.563a5.562,5.562,0,0,1,4.631,2.383c2.079,2.486,1.24,6.417-1.452,8.277l-10.414,7.251a4.891,4.891,0,0,1-3.268,1.1,8.145,8.145,0,0,1-1.1-.069,6.466,6.466,0,0,1-3.949-2.279,5.885,5.885,0,0,1,1.45-8.067l10-7.253.629-.208A5.732,5.732,0,0,1,787.981,679.05ZM761.4,613.109,766.191,616a3.44,3.44,0,0,0,1.152.3,1.377,1.377,0,0,0,.508-.087l12.476-1.652,4.579,1.86-2.482,10.347v22.989a14.04,14.04,0,1,0,28.079,0V627.8l.42-.836L866.681,657c2.481,2.486,3.531,6,2.081,8.9a6.009,6.009,0,0,1-5.173,3.061,5.926,5.926,0,0,1-2.954-.783l-31-16.78a2.129,2.129,0,0,0-1.207-.366,2.924,2.924,0,0,0-2.324,1.409,2.463,2.463,0,0,0,1.031,3.512l25.808,14.085a6.158,6.158,0,0,1,2.289,8.069,6.29,6.29,0,0,1-5.329,2.939,6.208,6.208,0,0,1-2.8-.662L820.9,666.112a2.221,2.221,0,0,0-1.258-.383,3.113,3.113,0,0,0-2.481,1.409,2.98,2.98,0,0,0,1.03,3.739l21.44,11.373a5.632,5.632,0,0,1,2.289,7.877,5.9,5.9,0,0,1-5.328,3.13,6.378,6.378,0,0,1-2.8-.644l-22.051-12.225a2.2,2.2,0,0,0-1.241-.365,2.6,2.6,0,0,0-2.289,1.409,2.331,2.331,0,0,0,1.031,3.512l17.072,9.32a5.849,5.849,0,0,1,2.289,8.069,5.686,5.686,0,0,1-5.067,3.079,5.44,5.44,0,0,1-2.849-.8L808.635,698.2a12.4,12.4,0,0,0-2.289-7.043,12.227,12.227,0,0,0-8.318-4.348,1.6,1.6,0,0,1,.192-.818,9.882,9.882,0,0,0-2.079-8.294,12.256,12.256,0,0,0-8.317-4.348,1.521,1.521,0,0,1,.209-.816,9.887,9.887,0,0,0-2.079-8.278,12.241,12.241,0,0,0-8.317-4.365c0-.192,0-.4.419-.818a11.581,11.581,0,0,0-2.1-8.277,11.061,11.061,0,0,0-8.824-4.277,11.918,11.918,0,0,0-6.57,2L741.85,661.973l-6.867-3.529Zm36.958,79.383a5.113,5.113,0,0,1,4.437,2.4,5.735,5.735,0,0,1,1.259,4.138,7.288,7.288,0,0,1-2.5,3.93l-6.238,4.348a5.63,5.63,0,0,1-3.354,1.079,6.008,6.008,0,0,1-4.77-2.314,5.894,5.894,0,0,1,1.468-8.086l5.608-4.139.63-.209A5.773,5.773,0,0,1,798.361,692.492ZM714.015,568a2.95,2.95,0,0,0-2.342,1.409,2.361,2.361,0,0,0,1.048,3.531L753.3,596.327l-35.158,60.255-2.918-1.443a2.363,2.363,0,0,0-1.328-.434,2.611,2.611,0,0,0-2.218,1.46,2.4,2.4,0,0,0,1.048,3.53l13.944,8.069a2.688,2.688,0,0,0,1.345.383,2.96,2.96,0,0,0,2.394-1.425L732.485,663l5.625,3.113a11.959,11.959,0,0,0,.821,11.79,11.066,11.066,0,0,0,9.156,4.557,18.272,18.272,0,0,0,3.338-.417,11.8,11.8,0,0,0,2.079,6.434,10.9,10.9,0,0,0,9.14,4.347,18.275,18.275,0,0,0,3.336-.417,12.415,12.415,0,0,0,2.079,6.417,11.654,11.654,0,0,0,7.287,4.348c.419,0,1.24.208,1.87.208a17.909,17.909,0,0,0,3.319-.419,12.4,12.4,0,0,0,2.081,6.417,11.677,11.677,0,0,0,7.286,4.348c.421,0,1.258.417,1.87.417a11.962,11.962,0,0,0,6.447-2.069l6.256-4.557a12.567,12.567,0,0,0,3.11-3.53L818.4,710a16.4,16.4,0,0,0,5.627,1.233,8.275,8.275,0,0,0,3.11-.626,10.549,10.549,0,0,0,6.657-5.373,10.143,10.143,0,0,0,1.258-6.417c.823,0,1.452.208,2.08.208a11.672,11.672,0,0,0,9.977-5.6,12.49,12.49,0,0,0,1.258-6.626c.821,0,1.241.417,2.079.417a11.452,11.452,0,0,0,9.979-5.79,11.773,11.773,0,0,0,1.258-6.417c.821,0,1.24.208,2.079.208a15.92,15.92,0,0,0,3.11-.417,11.1,11.1,0,0,0,6.659-5.6,9.317,9.317,0,0,0,.837-8.486,8.559,8.559,0,0,0-.837-2.069l4.786-3.3,2.5,3.1a2.8,2.8,0,0,0,2.184.921,3.121,3.121,0,0,0,1.765-.5l7.287-5.6a4.176,4.176,0,0,0,.419-4.348,4.1,4.1,0,0,0-2.465-1.061,1.939,1.939,0,0,0-1.274.453l-5.207,4.138-42.443-55.073,24.13-15.529c1.468-.836,1.66-2.279.839-3.721a2.382,2.382,0,0,0-1.992-1.131,2.89,2.89,0,0,0-1.555.5l-26.629,16.972a3.17,3.17,0,0,0-.823,3.931l5,6.225-3.338,2.47-13.734-4.348c-.208,0-.611-.208-.821-.208H790.952a2.469,2.469,0,0,0-2.5,2.087l-1.871,7.025L782,609.787a2.278,2.278,0,0,0-1.258-.209L768.27,611.04l-4.16-2.279,3.949-7.043a2.474,2.474,0,0,0-1.048-3.529L715.22,568.382A2.189,2.189,0,0,0,714.015,568Z" transform="translate(0.166 3.21)" fill="#272727" fill-rule="evenodd"/>
      <path id="Path_469" data-name="Path 469" d="M827.837,563.011a3.43,3.43,0,0,0-1.442.328l-14.864,9.69a2.253,2.253,0,0,0-.824,3.5,2.6,2.6,0,0,0,2.3,1.246,5,5,0,0,0,1.67-.415l14.846-9.483a2.6,2.6,0,0,0,.632-3.7A2.74,2.74,0,0,0,827.837,563.011Z" transform="translate(63.699 0.007)" fill="#272727" fill-rule="evenodd"/>
    </g>
    <g id="box" transform="matrix(1, -0.017, 0.017, 1, 2776.623, 3654.558)" clip-path="url(#clip-path-3)">
      <path id="Path_472" data-name="Path 472" d="M190.3,636.178v-2.167c-1.076-1.084-2.154-2.167-3.23-2.167L112.768,595h-3.231L34.154,631.844A5.641,5.641,0,0,0,32,636.178h0V727.2a5.641,5.641,0,0,0,2.154,4.334l75.383,36.844h3.231l75.383-36.844A5.638,5.638,0,0,0,190.3,727.2V636.178Zm-78.614-31.425L176.3,636.178,152.613,648.1,86.922,615.589Zm0,62.851L46,636.178l31.23-15.171,64.614,31.425ZM40.615,642.68l65.691,32.509v81.273L40.615,725.036ZM116,756.462V675.189l30.153-15.171v21.673a4.647,4.647,0,0,0,4.308,4.334c3.231,0,4.308-2.167,4.308-4.334V655.684l26.923-13v82.356Z" transform="translate(0 0.885)" fill="#393939" fill-rule="evenodd"/>
    </g>
    <g id="web" transform="matrix(1, -0.017, 0.017, 1, 1426.505, 4725.478)" clip-path="url(#clip-path-4)">
      <path id="Path_492" data-name="Path 492" d="M1518.464,162.828l3.152,12.2-12.557-2.71Zm-68.682-29.819c-24.237,0-46.687,9.48-64.182,26.2-20.647,20.782-30.085,51.518-24.708,80.877.91,2.711,2.7,4.977,5.848,4.977h.893c3.59-.445,4.938-3.614,4.5-6.784-4.5-25.3,3.59-51.963,21.979-70.035a78.944,78.944,0,0,1,55.67-23.048,75,75,0,0,1,50.732,19.433l-8.074,8.132a6.214,6.214,0,0,0-1.8,5.881c.438,2.251,2.242,3.156,4.5,4.06l31.872,6.784h1.332a5.477,5.477,0,0,0,3.59-1.806,5.926,5.926,0,0,0,1.8-5.881l-6.725-32.07a5.993,5.993,0,0,0-4.045-4.532,8.493,8.493,0,0,0-1.576-.158,4,4,0,0,0-3.818,1.964l-8.512,8.592C1492.878,140.681,1471.338,133.009,1449.782,133.009Z" transform="translate(5.253 -4.37)" fill="#373737" fill-rule="evenodd"/>
      <path id="Path_493" data-name="Path 493" d="M1376.875,245.338l12.151,3.155-9.454,9.436Zm154.551-69.329a4.143,4.143,0,0,0-.845.071,6.182,6.182,0,0,0-4.5,6.738c4.5,25.64-3.168,51.724-22.093,69.714a77.864,77.864,0,0,1-55.443,23.4,75.962,75.962,0,0,1-51.4-19.346l8.561-8.551c1.364-1.342,2.258-3.6,1.364-5.4-.455-2.242-1.8-3.6-4.516-4.042l-32-6.753a5.68,5.68,0,0,0-1.283-.156,5.794,5.794,0,0,0-4.126,1.956,5.879,5.879,0,0,0-1.8,5.853l6.757,31.937c.455,2.242,2.258,3.6,4.061,4.5h1.348c1.8,0,3.168-.456,4.061-1.8l8.561-8.551c16.228,14.848,37.866,22.486,59.5,22.486,24.334,0,46.882-9.436,64.458-26.084,21.2-21.586,31.108-51.724,25.244-81.407C1536.933,177.75,1533.992,176.009,1531.426,176.009Z" transform="translate(8.61 27.482)" fill="#2b2b2b" fill-rule="evenodd"/>
    </g>
    <g id="books_2" data-name="books 2" transform="matrix(1, -0.017, 0.017, 1, 1348.279, 4840.754)" clip-path="url(#clip-path-5)">
      <path id="Path_495" data-name="Path 495" d="M1574.768,73.638a19.5,19.5,0,0,0,0,19.411h-66.239a9.706,9.706,0,1,1,0-19.411Zm-15.513,25.8v19.411h-54.176V99.436Zm13.3,0v19.411h-6.409V99.436Zm12.545,0v19.411h-6.145V99.436Zm-79.276,25.8v19.411h-6.892V125.233Zm12.8,0v19.411h-6.4V125.233Zm60.076,0v19.411h-53.676V125.233Zm-69.917-58.224a17.416,17.416,0,0,0-13.546,7.12,16.118,16.118,0,0,0,3.7,21.867v22.85h-3.2a3.1,3.1,0,0,0-3.2,3.2v25.8a3.312,3.312,0,0,0,3.2,3.439h86.176a3.311,3.311,0,0,0,3.2-3.439V125.483h3.2c1.721,0,2.959-1.474,2.959-3.44v-25.8a3.055,3.055,0,0,0-2.959-3.2h-5.171a12.976,12.976,0,0,1,.746-20.144,3.381,3.381,0,0,0-1.484-5.9Z" transform="translate(-0.059 -0.123)" fill="#272727" fill-rule="evenodd"/>
    </g>
  </g>
</svg>
